<?xml version="1.0" encoding="UTF-8"?>
<svg width="464px" height="311px" viewBox="0 0 464 311" version="1.1" xmlns="http://www.w3.org/2000/svg" xmlns:xlink="http://www.w3.org/1999/xlink">
    <!-- Generator: Sketch 55.2 (78181) - https://sketchapp.com -->
    <title>Group 10</title>
    <desc>Created with Sketch.</desc>
    <defs>
        <polygon id="path-1" points="0 310.794 464 310.794 464 0 0 0"></polygon>
    </defs>
    <g id="current" stroke="none" stroke-width="1" fill="none" fill-rule="evenodd">
        <g id="360" transform="translate(-1063.000000, -391.000000)">
            <g id="Group-5" transform="translate(565.000000, 0.000000)">
                <g id="Combined-Shape">
                    <g id="Group-10" transform="translate(498.000000, 391.000000)">
                        <path d="M464,194.7758 C464,171.0708 433.857,148.8558 381.302,133.8248 C380.779,133.6758 380.255,133.7348 379.783,133.9978 C379.308,134.2618 378.979,134.6768 378.829,135.1978 C378.68,135.7188 378.74,136.2448 379.004,136.7198 C379.267,137.1928 379.681,137.5218 380.2,137.6698 C430.915,152.1748 460,172.9888 460,194.7758 C460,206.3318 451.779,223.6488 412.614,240.5238 C382.112,253.6678 339.02,263.2718 291.274,267.5698 L290.86,267.6078 L290.439,267.6008 L249.452,267.0468 C248.385,267.0478 247.473,267.9508 247.457818,269.0188 C247.451,269.5628 247.646,270.0528 248.024,270.4408 C248.402,270.8298 248.888,271.0388 249.428,271.0468 L290.944,271.6088 C291.008,271.6088 291.069,271.6048 291.132,271.5988 C339.488,267.2888 383.197,257.5568 414.197,244.1988 C455.359,226.4598 464,207.5308 464,194.7758" id="Fill-1" fill="#312F39"></path>
                        <path d="M88.8789,188.0746 L139.9999,188.0746 C141.1029,188.0746 141.9999,187.1776 141.9999,186.0746 L141.9999,63.4086 C141.9999,62.3056 141.1029,61.4086 139.9999,61.4086 L88.8789,61.4086 C87.7759,61.4086 86.8789,62.3056 86.8789,63.4086 C86.8789,64.5116 87.7759,65.4086 88.8789,65.4086 L137.9999,65.4086 L137.9999,122.7416 L88.8789,122.7416 C87.7759,122.7416 86.8789,123.6386 86.8789,124.7416 C86.8789,125.8446 87.7759,126.7416 88.8789,126.7416 L137.9999,126.7416 L137.9999,184.0746 L88.8789,184.0746 C87.7759,184.0746 86.8789,184.9716 86.8789,186.0746 C86.8789,187.1776 87.7759,188.0746 88.8789,188.0746" id="Fill-3" fill="#312F39"></path>
                        <mask id="mask-2" fill="white">
                            <use xlink:href="#path-1"></use>
                        </mask>
                        <g id="Clip-6"></g>
                        <path d="M182.879,184.075 L240.213,184.075 L240.213,126.742 L182.879,126.742 L182.879,184.075 Z M180.879,188.076 L242.213,188.076 C243.315,188.076 244.213,187.178 244.213,186.076 L244.213,124.743 C244.213,123.64 243.315,122.743 242.213,122.743 L182.879,122.743 L182.879,65.409 L232,65.409 C233.103,65.409 234,64.512 234,63.409 C234,62.306 233.103,61.409 232,61.409 L180.879,61.409 C179.776,61.409 178.879,62.306 178.879,63.409 L178.879,186.076 C178.879,187.178 179.776,188.076 180.879,188.076 L180.879,188.076 Z" id="Fill-5" fill="#312F39" mask="url(#mask-2)"></path>
                        <path d="M285.121,184.076 L342.455,184.076 L342.455,65.409 L285.121,65.409 L285.121,184.076 Z M283.121,188.076 L344.455,188.076 C345.558,188.076 346.455,187.178 346.455,186.076 L346.455,63.409 C346.455,62.306 345.558,61.409 344.455,61.409 L283.121,61.409 C282.019,61.409 281.121,62.306 281.121,63.409 L281.121,186.076 C281.121,187.178 282.019,188.076 283.121,188.076 L283.121,188.076 Z" id="Fill-7" fill="#312F39" mask="url(#mask-2)"></path>
                        <path d="M203.335,268.4916 L203.335,267.7266 C203.335,267.2546 203.167,266.7966 202.862,266.4346 L168.75,226.1126 C168.399,225.6986 167.928,225.4566 167.387,225.4106 C166.838,225.3636 166.35,225.5216 165.931,225.8766 C165.089,226.5896 164.983,227.8536 165.696,228.6976 L200.409,269.7326 L181.345,268.2796 C133.491,264.6306 89.561,255.6856 57.647,243.0946 C22.551,229.2436 4,212.5356 4,194.7756 C4,174.5296 28.514,155.4286 73.025,140.9906 C73.707,140.7686 74.045,140.2716 74.186,139.9946 C74.328,139.7176 74.531,139.1516 74.31,138.4696 C74.143,137.9546 73.8,137.5526 73.318,137.3056 C72.833,137.0586 72.307,137.0166 71.788,137.1846 C49.543,144.4006 32.02,152.8926 19.706,162.4266 C6.63,172.5526 -4.40536496e-13,183.4356 -4.40536496e-13,194.7756 C-4.40536496e-13,214.3176 19.426,232.3116 56.178,246.8136 C87.74,259.2676 131.044,268.2256 178.113,272.0386 L194.256,273.3476 L163.463,307.4766 C163.101,307.8796 162.923,308.3786 162.951,308.9206 C162.979,309.4606 163.206,309.9376 163.607,310.3006 C164.4,311.0156 165.723,310.9406 166.431,310.1576 L202.819,269.8316 C203.152,269.4636 203.335,268.9876 203.335,268.4916" id="Fill-8" fill="#312F39" mask="url(#mask-2)"></path>
                        <path d="M375.414,40.894 L412.293,40.894 L412.293,4 L375.414,4 L375.414,40.894 Z M373.414,44.894 L414.293,44.894 C415.396,44.894 416.293,43.997 416.293,42.894 L416.293,2 C416.293,0.897 415.396,1.42108547e-13 414.293,1.42108547e-13 L373.414,1.42108547e-13 C372.312,1.42108547e-13 371.414,0.897 371.414,2 L371.414,42.894 C371.414,43.997 372.312,44.894 373.414,44.894 L373.414,44.894 Z" id="Fill-9" fill="#312F39" mask="url(#mask-2)"></path>
                    </g>
                </g>
            </g>
        </g>
    </g>
</svg>