<?xml version="1.0" encoding="UTF-8"?>
<svg width="484px" height="322px" viewBox="0 0 484 322" version="1.1" xmlns="http://www.w3.org/2000/svg" xmlns:xlink="http://www.w3.org/1999/xlink">
    <!-- Generator: Sketch 55.2 (78181) - https://sketchapp.com -->
    <title>Group 10</title>
    <desc>Created with Sketch.</desc>
    <g id="current" stroke="none" stroke-width="1" fill="none" fill-rule="evenodd">
        <g id="360" transform="translate(-648.000000, -386.000000)" fill="#FFFFFF">
            <g id="Group-10" transform="translate(648.000000, 386.000000)">
                <path d="M305.4365,282.608 C305.6625,282.608 305.8865,282.597 306.1105,282.578 C355.0405,278.215 399.3525,268.332 430.8745,254.749 C474.7835,235.826 483.9995,214.681 483.9995,200.275 C483.9995,173.547 453.2145,150.023 397.3145,134.036 L397.3145,134.036 C395.3875,133.485 393.3625,133.716 391.6115,134.69 C389.8605,135.662 388.5915,137.258 388.0405,139.185 C387.4905,141.111 387.7225,143.136 388.6955,144.888 C389.6675,146.64 391.2635,147.907 393.1895,148.458 C440.6595,162.034 468.9995,181.405 468.9995,200.275 C468.9995,214.275 453.3515,228.729 424.9375,240.972 C394.9575,253.89 352.4625,263.344 305.2815,267.591 L305.1525,267.603 L305.0225,267.601 L264.0595,267.046 L263.9555,264.546 L263.9555,267.045 C259.8765,267.045 256.5135,270.365 256.457799,274.445 C256.4315,276.448 257.1855,278.341 258.5825,279.777 C259.9805,281.212 261.8535,282.018 263.8555,282.045 L305.3345,282.607 L305.4365,285.108 L305.4365,282.608 Z" id="Fill-1"></path>
                <path d="M162,68.9078 C162,64.7718 158.636,61.4078 154.5,61.4078 L103.379,61.4078 C99.243,61.4078 95.879,64.7718 95.879,68.9078 C95.879,73.0438 99.243,76.4078 103.379,76.4078 L147,76.4078 L147,122.7408 L103.379,122.7408 C99.243,122.7408 95.879,126.1048 95.879,130.2408 C95.879,134.3768 99.243,137.7408 103.379,137.7408 L147,137.7408 L147,184.0738 L103.379,184.0738 C99.243,184.0738 95.879,187.4378 95.879,191.5738 C95.879,195.7098 99.243,199.0738 103.379,199.0738 L154.5,199.0738 C158.636,199.0738 162,195.7098 162,191.5738 L162,68.9078 Z" id="Fill-3"></path>
                <path d="M202.879,184.074 L249.213,184.074 L249.213,137.741 L202.879,137.741 L202.879,184.074 Z M246.5,61.408 L195.379,61.408 C191.243,61.408 187.879,64.772 187.879,68.908 L187.879,191.575 C187.879,195.711 191.243,199.075 195.379,199.075 L256.713,199.075 C260.849,199.075 264.213,195.711 264.213,191.575 L264.213,130.242 C264.213,126.106 260.849,122.742 256.713,122.742 L202.879,122.742 L202.879,76.408 L246.5,76.408 C250.636,76.408 254,73.044 254,68.908 C254,64.772 250.636,61.408 246.5,61.408 L246.5,61.408 Z" id="Fill-5"></path>
                <path d="M305.121,184.075 L351.455,184.075 L351.455,76.408 L305.121,76.408 L305.121,184.075 Z M358.955,61.408 L297.621,61.408 C293.485,61.408 290.121,64.772 290.121,68.908 L290.121,191.575 C290.121,195.711 293.485,199.075 297.621,199.075 L358.955,199.075 C363.091,199.075 366.455,195.711 366.455,191.575 L366.455,68.908 C366.455,64.772 363.091,61.408 358.955,61.408 L358.955,61.408 Z" id="Fill-7"></path>
                <path d="M165.4233,319.8834 C166.8043,321.1294 168.5883,321.8164 170.4443,321.8164 C172.5653,321.8164 174.5963,320.9134 176.0153,319.3394 L212.4023,279.0154 C213.6493,277.6344 214.3353,275.8504 214.3353,273.9904 L214.3353,273.2264 C214.3353,271.4554 213.7053,269.7354 212.5613,268.3824 L178.4483,228.0594 C177.1543,226.5294 175.3423,225.5964 173.3453,225.4294 C171.3453,225.2634 169.4073,225.8834 167.8793,227.1764 C164.7213,229.8474 164.3253,234.5894 166.9963,237.7474 L193.2203,268.7484 L187.2633,268.2944 C139.9433,264.6864 96.5813,255.8724 65.1653,243.4774 C32.8163,230.7104 15.0003,215.3674 15.0003,200.2754 C15.0003,182.8624 38.7723,165.1654 80.2213,151.7204 C84.1553,150.4454 86.3183,146.2064 85.0423,142.2724 C84.4243,140.3664 83.1013,138.8164 81.3163,137.9054 C80.2453,137.3594 79.0843,137.0824 77.9153,137.0824 C77.1373,137.0824 76.3563,137.2054 75.5943,137.4514 C52.7413,144.8634 34.6553,153.6534 21.8383,163.5764 C7.3473,174.7984 0.0003,187.1464 0.0003,200.2754 C0.0003,222.2654 20.6303,242.0294 59.6593,257.4294 C91.7103,270.0754 135.5733,279.1644 183.1693,283.0204 L188.2143,283.4294 L164.8803,309.2914 C163.5383,310.7794 162.8553,312.6994 162.9583,314.7004 C163.0603,316.7004 163.9363,318.5414 165.4233,319.8834" id="Fill-8"></path>
                <path d="M395.414,40.894 L421.293,40.894 L421.293,15 L395.414,15 L395.414,40.894 Z M428.793,0 L387.914,0 C383.778,0 380.414,3.364 380.414,7.5 L380.414,48.394 C380.414,52.529 383.778,55.894 387.914,55.894 L428.793,55.894 C432.929,55.894 436.293,52.529 436.293,48.394 L436.293,7.5 C436.293,3.364 432.929,0 428.793,0 L428.793,0 Z" id="Fill-9"></path>
            </g>
        </g>
    </g>
</svg>