<?xml version="1.0" encoding="utf-8"?>
<!-- Generator: Adobe Illustrator 21.1.0, SVG Export Plug-In . SVG Version: 6.00 Build 0)  -->
<svg version="1.1" id="Layer_1" xmlns="http://www.w3.org/2000/svg" xmlns:xlink="http://www.w3.org/1999/xlink" x="0px" y="0px"
	 viewBox="0 0 197.7 38.7" style="enable-background:new 0 0 197.7 38.7;" xml:space="preserve">
<style type="text/css">
	.st0{fill:#FFFFFF;}
	.st1{opacity:0;fill:#1F1F21;}
</style>
<title>dn</title>
<path class="st0" d="M180.3,6.7h9.4V0h-9.4V6.7z"/>
<path id="Fill-1" class="st1" d="M9.5,8.8v21.8h15.6c11.1,0,16.9-3.2,16.9-10.9c0-7.7-5.8-10.9-16.9-10.9H9.5z M0,0.6h25.8
	c16.4,0,26.3,6.9,26.3,18.7c0,11.8-9.9,18.7-25.9,18.7H0V0.6z"/>
<polygon id="Fill-3" class="st1" points="67.2,11.5 67.2,38.1 57.4,38.1 57.4,0.6 67.7,0.6 99.7,28 99.7,0.6 109.5,0.6 109.5,38.1 
	98.2,38.1 "/>
<polygon id="Fill-7" class="st0" points="195.4,31.6 188.3,31.6 188.2,31.6 188.2,16.9 188.2,16.9 188.2,10 188.2,10 179.2,10 
	170.5,10 170.5,16.9 179.2,16.9 179.2,31.6 176.8,31.6 169.6,31.6 169.6,38.1 176.8,38.1 188.3,38.1 195.4,38.1 197.7,38.1 
	197.7,31.6 "/>
<polygon class="st0" points="149.3,8.5 139.6,8.5 139.5,8.6 146,19.8 149.3,25.4 138.9,25.4 138.9,31.6 152.8,31.6 153.3,32.4 
	153.3,32.4 156.6,38.1 167.1,38.1 "/>
</svg>
