<?xml version="1.0" encoding="utf-8"?>
<!-- Generator: Adobe Illustrator 23.0.4, SVG Export Plug-In . SVG Version: 6.00 Build 0)  -->
<svg version="1.1" id="Layer_1" xmlns="http://www.w3.org/2000/svg" xmlns:xlink="http://www.w3.org/1999/xlink" x="0px" y="0px"
	 viewBox="0 0 510 534" style="enable-background:new 0 0 510 534;" xml:space="preserve">
<style type="text/css">
	.st0{fill:#32303A;}
</style>
<g>
	<path class="st0" d="M51.6,414v99.9H19.1c-0.6,0-1.1,0.5-1.1,1.1c0,0.6,0.5,1.1,1.1,1.1h471.7c0.6,0,1.1-0.5,1.1-1.1
		c0-0.6-0.5-1.1-1.1-1.1h-31.3V184.1c0-10-8.2-18.1-18.3-18.1h-49.8c-10.1,0-18.3,8.1-18.3,18.1v329.8h-74.5V329.4
		c0-10-8.2-18.1-18.3-18.1h-49.8c-10.1,0-18.3,8.1-18.3,18.1v184.4h-74.5V414c0-10-8.2-18.1-18.3-18.1H69.9
		C59.8,395.9,51.6,404,51.6,414z M375.6,184.1c0-8.8,7.2-15.9,16-15.9h49.8c8.8,0,16,7.1,16,15.9v329.8h-81.7V184.1z M214.7,329.4
		c0-8.8,7.2-15.9,16-15.9h49.8c8.8,0,16,7.1,16,15.9v184.4h-81.7V329.4z M135.6,414v99.9H53.9V414c0-8.8,7.2-15.9,16-15.9h49.8
		C128.5,398.1,135.6,405.2,135.6,414z"/>
	<path class="st0" d="M333.9,141.6l-44.2-43.9c-0.2-0.2-0.5-0.3-0.8-0.3s-0.6,0.1-0.8,0.3L105.3,279.2c-0.2,0.2-0.3,0.5-0.3,0.8
		c0,0.3,0.1,0.5,0.3,0.8c0.3,0.3,0.6,0.3,0.8,0.3c0.2,0,0.6-0.1,0.8-0.3l181.8-180.6L333,144c0.5,0.5,1.2,0.5,1.7,0l123-122.1v55.7
		c0,0.6,0.5,1.1,1.2,1.1s1.2-0.5,1.2-1.1V20.3c0-0.1,0-0.2,0-0.3l0-0.4l0-0.4c0-0.3-0.1-0.6-0.3-0.8c-0.3-0.3-0.7-0.3-0.9-0.3
		l-0.4,0l-0.7,0h-61.3c-0.6,0-1.2,0.5-1.2,1.1s0.5,1.1,1.2,1.1h59.8L333.9,141.6z"/>
</g>
</svg>
