<?xml version="1.0" encoding="utf-8"?>
<!-- Generator: Adobe Illustrator 23.0.4, SVG Export Plug-In . SVG Version: 6.00 Build 0)  -->
<svg version="1.1" id="Layer_1" xmlns="http://www.w3.org/2000/svg" xmlns:xlink="http://www.w3.org/1999/xlink" x="0px" y="0px"
	 viewBox="0 0 506 531" style="enable-background:new 0 0 506 531;" xml:space="preserve">
<style type="text/css">
	.st0{fill:#FFFFFF;}
</style>
<title>bar-chart</title>
<desc>Created with Sketch.</desc>
<path class="st0" d="M491.1,521.5c3.2,0,5.7-2.5,5.7-5.7s-2.6-5.7-5.7-5.7h-27V181.6c0-12.6-10.3-22.9-23-22.9h-50.2
	c-12.7,0-23,10.3-23,22.9v328.6h-66.1V328.4c0-12.6-10.3-22.9-23-22.9h-50.2c-12.7,0-23,10.3-23,22.9v181.7h-66.1v-96.3
	c0-12.6-10.3-22.9-23-22.9H66.1c-12.7,0-23,10.3-23,22.9v96.3H14.9c-3.2,0-5.7,2.5-5.7,5.7s2.6,5.7,5.7,5.7H491.1z M379.3,181.6
	c0-6.3,5.2-11.5,11.6-11.5h50.2c6.4,0,11.6,5.2,11.6,11.5v328.6h-73.3V181.6z M216.9,328.4c0-6.3,5.2-11.5,11.6-11.5h50.2
	c6.4,0,11.6,5.2,11.6,11.5v181.7h-73.3V328.4z M54.5,413.9c0-6.3,5.2-11.5,11.6-11.5h50.2c6.4,0,11.6,5.2,11.6,11.5v96.3H54.5V413.9
	z"/>
<path class="st0" d="M464.2,74.1v-58l0-0.5l0-0.2c0.1-1.6-0.5-3.2-1.7-4.3c-1.2-1.2-2.7-1.7-4.4-1.7l-0.2,0l-0.5,0l-62,0
	c-3.2,0-5.7,2.5-5.7,5.7s2.6,5.7,5.7,5.7h49.2L332.4,132.3L291,91.2c-1.1-1.1-2.6-1.7-4.1-1.7s-3,0.6-4.1,1.7L98.7,274.1
	c-1.1,1.1-1.7,2.5-1.7,4s0.6,2.9,1.7,4c1.1,1.1,2.5,1.7,4.1,1.7c1.5,0,3-0.6,4.1-1.7l180.1-178.9l41.4,41.1c2.2,2.2,5.9,2.2,8.2,0
	L452.7,28.9v45.2c0,3.1,2.6,5.7,5.7,5.7S464.2,77.3,464.2,74.1z"/>
</svg>
