<?xml version="1.0" encoding="UTF-8"?>
<svg width="507px" height="375px" viewBox="0 0 507 375" version="1.1" xmlns="http://www.w3.org/2000/svg" xmlns:xlink="http://www.w3.org/1999/xlink">
    <!-- Generator: Sketch 55.2 (78181) - https://sketchapp.com -->
    <title>Group 12</title>
    <desc>Created with Sketch.</desc>
    <defs>
        <polygon id="path-1" points="0.00997062626 0.412263484 507 0.412263484 507 375 0.00997062626 375"></polygon>
        <polygon id="path-3" points="0 0.4141 56.7928 0.4141 56.7928 13.0701 0 13.0701"></polygon>
        <polygon id="path-5" points="0 0.3789 127.4139 0.3789 127.4139 13.0349 0 13.0349"></polygon>
    </defs>
    <g id="current" stroke="none" stroke-width="1" fill="none" fill-rule="evenodd">
        <g id="active" transform="translate(-692.000000, -354.000000)">
            <g id="Group-12" transform="translate(692.000000, 353.000000)">
                <g id="Group-3" transform="translate(0.000000, 0.588000)">
                    <mask id="mask-2" fill="white">
                        <use xlink:href="#path-1"></use>
                    </mask>
                    <g id="Clip-2"></g>
                    <path d="M84.7461,92.0811 L115.9411,115.2831 C131.4341,126.9151 139.3491,146.0261 136.6251,165.1921 L135.3511,194.6951 L50.6301,145.8651 L84.7461,92.0811 Z M105.4651,59.4791 L185.6921,107.6141 C186.3811,108.0101 187.1691,108.2701 188.0031,108.3681 C188.2821,108.3821 188.5051,108.4261 188.6481,108.4551 C188.8091,108.4731 188.9361,108.4921 189.0521,108.5111 C189.8091,108.5011 190.5411,108.3601 191.2381,108.0901 L280.6631,73.6011 C283.0671,72.6851 285.7651,72.9981 287.8851,74.4401 C290.0341,75.9131 291.3031,78.3401 291.2851,80.9381 L291.2851,91.8831 L258.5041,116.4651 C257.1541,117.4791 256.2791,118.9601 256.0421,120.6341 C255.8051,122.3071 256.2321,123.9721 257.2481,125.3211 L345.5671,240.1401 C347.2061,242.2861 350.0201,243.1441 352.5701,242.2871 L377.8611,233.8531 L457.6851,239.5581 C478.1661,241.0741 494.2651,258.3421 494.3441,278.8691 L494.3441,309.3791 L334.6371,309.3791 L270.7121,272.5751 L293.3281,249.5151 C294.4701,248.3171 295.0901,246.7141 295.0491,245.0231 C295.0091,243.3341 294.3121,241.7611 293.0881,240.5961 C290.5921,238.2151 286.7181,238.2531 284.2671,240.6831 L259.3861,266.0511 L220.9871,243.9231 L257.4931,214.7201 C260.2171,212.5391 260.6581,208.5461 258.4771,205.8191 C256.2971,203.0971 252.3051,202.6531 249.5821,204.8341 L209.2041,237.1421 L175.8721,217.9761 L222.2391,179.3331 C224.9231,177.1001 225.2891,173.0991 223.0581,170.4141 C220.8261,167.7321 216.8241,167.3661 214.1371,169.5981 L164.1811,211.2391 L147.7081,201.7581 L149.2211,166.1291 C152.3691,142.6291 142.5081,119.2381 123.4881,105.0831 L91.5441,81.3331 L105.4651,59.4791 Z M132.2351,15.1701 L183.9551,42.9301 C191.9081,47.1341 195.8251,56.1491 193.4681,64.8461 L185.2411,92.5721 L112.1131,48.7091 L132.2351,15.1701 Z M367.5911,223.9171 L352.8651,228.8291 L271.2501,122.7151 L295.7951,104.2851 L367.5911,223.9171 Z M494.3441,324.5351 C494.3441,345.3851 477.3831,362.3481 456.5351,362.3481 L326.4941,362.3481 L14.8151,189.5851 L35.0221,151.5911 L329.7821,321.1921 C330.7401,321.7441 331.8271,322.0351 332.9271,322.0351 L332.9431,322.0351 L494.3441,322.0351 L494.3441,324.5351 Z M35.6681,137.3041 C34.7031,136.7481 33.6281,136.4641 32.5381,136.4641 C31.9841,136.4641 31.4261,136.5381 30.8761,136.6861 C29.2461,137.1281 27.8841,138.1781 27.0431,139.6431 L26.9531,139.8041 L0.7391,189.1531 C-0.8669,192.1821 0.2691,195.9981 3.2731,197.6601 L321.8091,374.2121 C322.7421,374.7271 323.8021,375.0001 324.8711,375.0001 L456.5351,375.0001 C484.3351,374.9741 506.9741,352.3351 507.0001,324.5331 L507.0001,278.8791 C506.9111,251.7641 485.6511,228.9361 458.6011,226.9151 L380.8181,221.3581 L303.9651,93.2661 L303.9651,80.8941 C303.9681,75.4301 301.8441,70.2931 297.9831,66.4281 C294.1231,62.5631 288.9881,60.4331 283.5251,60.4301 L283.4971,60.4301 C280.9711,60.4301 278.4921,60.8941 276.1291,61.8081 L198.6901,91.6801 L205.6351,68.3681 C209.6121,54.1531 203.0211,38.7631 189.9511,31.8131 L132.9071,1.1671 C129.9301,-0.4309 126.2321,0.5861 124.4901,3.4831 L39.5271,139.5401 L35.6681,137.3041 Z" id="Fill-1" fill="#FFFFFF" mask="url(#mask-2)"></path>
                </g>
                <g id="Group-6" transform="translate(0.000000, 256.588000)">
                    <mask id="mask-4" fill="white">
                        <use xlink:href="#path-3"></use>
                    </mask>
                    <g id="Clip-5"></g>
                    <path d="M50.4648,0.4141 L6.3278,0.4141 C2.8388,0.4141 -0.0002,3.2531 -0.0002,6.7421 C-0.0002,10.2311 2.8388,13.0701 6.3278,13.0701 L50.4648,13.0701 C53.9538,13.0701 56.7928,10.2311 56.7928,6.7421 C56.7928,3.2531 53.9538,0.4141 50.4648,0.4141" id="Fill-4" fill="#FFFFFF" mask="url(#mask-4)"></path>
                </g>
                <g id="Group-9" transform="translate(0.000000, 309.588000)">
                    <mask id="mask-6" fill="white">
                        <use xlink:href="#path-5"></use>
                    </mask>
                    <g id="Clip-8"></g>
                    <path d="M121.0859,0.3789 L6.3279,0.3789 C2.8389,0.3789 -0.0001,3.2179 -0.0001,6.7069 C-0.0001,10.1959 2.8389,13.0349 6.3279,13.0349 L121.0859,13.0349 C124.5749,13.0349 127.4139,10.1959 127.4139,6.7069 C127.4139,3.2179 124.5749,0.3789 121.0859,0.3789" id="Fill-7" fill="#FFFFFF" mask="url(#mask-6)"></path>
                </g>
                <path d="M218.1914,362.9357 L6.3284,362.9357 C2.8384,362.9357 0.0004,365.7727 0.0004,369.2597 C0.0004,372.7487 2.8384,375.5877 6.3284,375.5877 L218.1914,375.5877 C221.6784,375.5877 224.5154,372.7487 224.5154,369.2597 C224.5154,365.7727 221.6784,362.9357 218.1914,362.9357" id="Fill-10" fill="#FFFFFF"></path>
            </g>
        </g>
    </g>
</svg>