<?xml version="1.0" encoding="UTF-8"?>
<svg width="497px" height="365px" viewBox="0 0 497 365" version="1.1" xmlns="http://www.w3.org/2000/svg" xmlns:xlink="http://www.w3.org/1999/xlink">
    <!-- Generator: Sketch 55.2 (78181) - https://sketchapp.com -->
    <title>Group 10</title>
    <desc>Created with Sketch.</desc>
    <defs>
        <polygon id="path-1" points="0.0125675557 0.414 496.9997 0.414 496.9997 364.9997 0.0125675557 364.9997"></polygon>
    </defs>
    <g id="current" stroke="none" stroke-width="1" fill="none" fill-rule="evenodd">
        <g id="active" transform="translate(-939.000000, -118.000000)">
            <g id="Group-5" transform="translate(565.000000, 0.000000)">
                <g id="Combined-Shape">
                    <g id="Group-10" transform="translate(374.000000, 117.000000)">
                        <g id="Group-3" transform="translate(0.000000, 0.586000)">
                            <mask id="mask-2" fill="white">
                                <use xlink:href="#path-1"></use>
                            </mask>
                            <g id="Clip-2"></g>
                            <path d="M28.0347,139.6787 L327.2757,311.8587 C327.4767,311.9747 327.7017,312.0347 327.9267,312.0347 L494.3437,312.0347 L494.3437,319.5347 C494.3437,343.1417 475.1397,362.3477 451.5347,362.3477 L320.2017,362.3477 L3.0927,186.5757 L28.0347,139.6787 Z M78.4087,79.8547 L113.9257,106.2707 C130.8157,118.9517 139.4857,139.7637 136.6097,160.6477 L134.9917,198.1407 L38.6137,142.5917 L78.4087,79.8547 Z M98.8627,47.6867 L183.2647,98.3267 C183.2457,98.3147 183.3487,98.3637 183.5087,98.3907 C183.7877,98.4127 184.0357,98.4467 184.2517,98.4827 C184.3127,98.4687 184.3737,98.4507 184.4347,98.4277 L273.8647,63.9357 C277.8077,62.4317 282.2257,62.9447 285.6967,65.3047 C289.2307,67.7277 291.3137,71.7107 291.2847,75.9717 L291.2847,89.3827 L256.5037,115.4647 C256.2167,115.6807 256.0437,115.9737 255.9927,116.3357 C255.9417,116.6967 256.0257,117.0257 256.2427,117.3147 L344.5307,232.0907 C344.8777,232.5457 345.4527,232.7237 345.9767,232.5477 L372.2247,223.7947 L453.0417,229.5707 C476.1177,231.2797 494.2547,250.7287 494.3437,273.8497 L494.3437,309.3787 L328.2997,309.3787 L257.6187,268.6857 L284.7587,241.0137 C284.9417,240.8217 285.0587,240.5027 285.0507,240.1447 C285.0417,239.7797 284.9047,239.4677 284.6417,239.2187 C284.0957,238.6967 283.3197,238.7057 282.7877,239.2337 L255.2437,267.3167 L207.1417,239.5957 L249.3697,205.8157 C249.9407,205.3587 250.0327,204.5177 249.5737,203.9427 C249.1147,203.3717 248.2777,203.2787 247.7077,203.7377 L204.6667,238.1747 L162.1557,213.7317 L214.0377,170.4927 C214.6057,170.0197 214.6827,169.1767 214.2127,168.6107 C213.7457,168.0487 212.9007,167.9727 212.3327,168.4437 L159.7057,212.3107 L137.5837,199.5767 L139.2657,160.4657 C142.1717,138.7647 133.0667,117.1647 115.5027,104.0947 L79.8277,77.5707 L98.8627,47.6867 Z M125.3997,3.5107 L181.3207,33.5247 C191.3317,38.8177 196.2667,50.1847 193.2937,61.1537 L193.2617,61.2677 L183.2007,95.1777 L100.2537,45.4247 L125.3997,3.5107 Z M370.0847,221.6877 L346.0717,229.6987 L259.2027,116.7537 L292.2277,91.9567 L370.0847,221.6877 Z M0.6937,188.2847 L319.2337,364.8387 C319.4187,364.9417 319.6487,364.9997 319.8707,364.9997 L451.5347,364.9997 C476.5787,364.9767 496.9767,344.5777 496.9997,319.5287 L496.9997,273.8787 C496.9197,249.3717 477.6937,228.7297 453.2287,226.9017 L372.8677,221.1597 L293.9647,89.6507 L293.9647,75.8947 C293.9667,71.7637 292.3627,67.8817 289.4457,64.9617 C286.5297,62.0417 282.6497,60.4317 278.5227,60.4297 C276.5907,60.4297 274.7187,60.7807 272.9337,61.4707 L185.9917,95.0097 L195.8437,61.9407 C199.1737,50.0337 193.6157,37.0827 182.6037,31.2277 L125.5407,0.5717 C124.9167,0.2367 124.1407,0.4507 123.7747,1.0597 L36.2057,141.2917 L28.1757,136.6377 C27.8697,136.4627 27.5307,136.4197 27.1797,136.5137 C26.8307,136.6077 26.5607,136.8157 26.3807,137.1317 L26.3397,137.2037 L0.1547,186.4987 C-0.1693,187.1107 0.0817,187.9467 0.6937,188.2847 L0.6937,188.2847 Z" id="Fill-1" fill="#32303A" mask="url(#mask-2)"></path>
                        </g>
                        <path d="M1.3281,259.6563 L45.4651,259.6563 C46.1971,259.6563 46.7931,259.0603 46.7931,258.3283 C46.7931,257.5953 46.1971,257.0003 45.4651,257.0003 L1.3281,257.0003 C0.5961,257.0003 0.0001,257.5953 0.0001,258.3283 C0.0001,259.0603 0.5961,259.6563 1.3281,259.6563" id="Fill-4" fill="#32303A"></path>
                        <path d="M1.3281,312.6212 L116.0861,312.6212 C116.8181,312.6212 117.4141,312.0252 117.4141,311.2932 C117.4141,310.5602 116.8181,309.9652 116.0861,309.9652 L1.3281,309.9652 C0.5961,309.9652 0.0001,310.5602 0.0001,311.2932 C0.0001,312.0252 0.5961,312.6212 1.3281,312.6212" id="Fill-6" fill="#32303A"></path>
                        <path d="M1.3281,365.586 L213.1911,365.586 C213.9211,365.586 214.5151,364.99 214.5151,364.258 C214.5151,363.527 213.9211,362.934 213.1911,362.934 L1.3281,362.934 C0.5961,362.934 0.0001,363.527 0.0001,364.258 C0.0001,364.99 0.5961,365.586 1.3281,365.586" id="Fill-8" fill="#32303A"></path>
                    </g>
                </g>
            </g>
        </g>
    </g>
</svg>