<?xml version="1.0" encoding="utf-8"?>
<!-- Generator: Adobe Illustrator 23.0.4, SVG Export Plug-In . SVG Version: 6.00 Build 0)  -->
<svg version="1.1" id="Layer_1" xmlns="http://www.w3.org/2000/svg" xmlns:xlink="http://www.w3.org/1999/xlink" x="0px" y="0px"
	 viewBox="0 0 73 73" style="enable-background:new 0 0 73 73;" xml:space="preserve">
<style type="text/css">
	.st0{fill:#FFFFFF;}
</style>
<title>brain</title>
<desc>Created with Sketch.</desc>
<path class="st0" d="M67.1,32.4c-1.3,0-2.4,0.6-3.2,1.6l-0.3,0.4H38.3v-8.9h23.3c0.5,0,0.9-0.2,1.3-0.5l5.5-5.5
	c0.3-0.3,0.5-0.8,0.5-1.2v-9L69.3,9c1-0.7,1.7-1.9,1.7-3.2C71,3.7,69.3,2,67.1,2s-3.9,1.7-3.9,3.8c0,1.3,0.6,2.4,1.7,3.2l0.4,0.3
	v8.3L60.9,22H38.3V11c0-2.4-0.9-4.6-2.6-6.3C34,3,31.8,2.1,29.4,2.1c-4.8,0-8.8,3.9-8.9,8.8l0,1h-1.3c-2.2,0-4.3,0.9-5.8,2.4
	c-1.5,1.5-2.3,3.5-2.3,5.6c0,0.8,0.1,1.5,0.3,2.3l0.3,1l-1,0.3c-2.3,0.6-4.3,1.9-5.8,3.7C3,29.2,2,31.9,2,34.8c0,3.5,1.6,6.8,4.3,9
	L7,44.4l-0.5,0.8c-1.4,2-2.1,4.3-2.1,6.7c0,5.7,4.7,10.4,10.4,10.4H15c1.4,0,2.7,0.9,3.3,2.2c1.6,4,5.4,6.5,9.6,6.5
	c0.1,0,0.2,0,0.4,0c2.7-0.1,5.3-1.2,7.1-3.2c1.9-2,2.9-4.5,2.9-7.3c0-1-0.8-1.8-1.8-1.8s-1.8,0.8-1.8,1.8c0,3.7-3,6.8-6.6,6.9
	l-0.2,0c-2.8,0-5.3-1.7-6.3-4.3c-1.1-2.7-3.7-4.4-6.6-4.4h-0.2c-3.8,0-6.9-3.1-6.9-6.9c0-2.5,1.1-4.4,2.1-5.4l0.4-0.5l0.6,0.1
	c0.9,0.2,1.9,0.3,2.8,0.3c1,0,1.8-0.8,1.8-1.8c0-1-0.8-1.8-1.8-1.8c-4.5,0-8.2-3.7-8.2-8.2c0-4,3-7.5,6.9-8.1l2.7-0.4
	c0.7-0.1,1.2-0.6,1.4-1.2c0.2-0.7,0-1.4-0.5-1.8c-1-0.8-1.5-2-1.5-3.3c0-1.2,0.5-2.3,1.3-3.1c0.9-0.9,2-1.4,3.3-1.4h0.6
	c2.4,0,4.3-1.9,4.3-4.3c0-3,2.4-5.4,5.3-5.4c3,0,5.3,2.3,5.3,5.3v37.8c0,1,1,1.9,2,1.8l0.2,0l0.1,0H61l4.5,4.5v8.5l-0.5,0.3
	c-1.1,0.7-1.8,1.9-1.8,3.2c0,2.1,1.7,3.8,3.9,3.8S71,69.1,71,67c0-1.2-0.6-2.3-1.5-3.1l-0.4-0.3v-9.4c0-0.5-0.2-0.9-0.5-1.2L63,47.5
	c-0.3-0.3-0.8-0.5-1.3-0.5H38.3V38h25.4l0.3,0.4c0.7,1,1.9,1.6,3.2,1.6c2.1,0,3.9-1.7,3.9-3.8S69.3,32.4,67.1,32.4z"/>
</svg>
