<?xml version="1.0" encoding="UTF-8"?>
<svg width="71px" height="62px" viewBox="0 0 71 62" version="1.1" xmlns="http://www.w3.org/2000/svg" xmlns:xlink="http://www.w3.org/1999/xlink">
    <!-- Generator: Sketch 53.2 (72643) - https://sketchapp.com -->
    <title>noun_Diamond_1216794</title>
    <desc>Created with Sketch.</desc>
    <g id="current" stroke="none" stroke-width="1" fill="none" fill-rule="evenodd">
        <g id="motor_ztmaveno_short-version-copy" transform="translate(-1055.000000, -3101.000000)" fill="#000000" fill-rule="nonzero">
            <g id="tile-hover" transform="translate(961.000000, 2670.000000)">
                <g id="noun_Diamond_1216794" transform="translate(94.000000, 431.000000)">
                    <path d="M70.5987143,16.0727736 L58.9187476,0.790032564 C58.5493511,0.307234886 57.9688708,0 57.3620051,0 L13.6500816,0 C13.0432158,0 12.4627355,0.298456746 12.093339,0.790032564 L0.518914183,15.9323234 C0.20228858,16.2307801 0,16.7135778 0,17.2490443 C0,17.7581764 0.184698268,18.2146397 0.474938405,18.5218746 L33.7997831,60.9554014 C34.1164087,61.5786493 34.7584551,62 35.5060433,62 C36.2184509,62 36.842907,61.6049837 37.1683277,61.0256265 L70.5899192,18.4692057 C71.1352188,17.7669546 71.1352188,16.7838029 70.5987143,16.0727736 Z M26.9131763,3.93260654 L44.1077055,3.9238284 L48.0743207,15.2739629 L22.9377659,15.2739629 L26.9131763,3.93260654 Z M35.5060433,54.1698995 L22.9641514,19.2241257 L48.0479353,19.2241257 L35.5060433,54.1698995 Z M14.6263438,3.95016282 L22.7618628,3.95016282 L18.7864524,15.2739629 L5.93673006,15.2739629 L14.6263438,3.95016282 Z M5.99829615,19.2241257 L18.7952476,19.2241257 L29.5693133,49.2453632 L5.99829615,19.2241257 Z M41.4339782,49.2453632 L52.2080439,19.2241257 L65.0137905,19.2241257 L41.4339782,49.2453632 Z M52.2256342,15.2739629 L48.2502238,3.95016282 L56.3857428,3.95016282 L65.0753566,15.2739629 L52.2256342,15.2739629 Z" id="Shape"></path>
                </g>
            </g>
        </g>
    </g>
</svg>