<?xml version="1.0" encoding="utf-8"?>
<!-- Generator: Adobe Illustrator 21.1.0, SVG Export Plug-In . SVG Version: 6.00 Build 0)  -->
<svg version="1.1" id="Layer_1" xmlns="http://www.w3.org/2000/svg" xmlns:xlink="http://www.w3.org/1999/xlink" x="0px" y="0px"
	 viewBox="0 0 422 373" style="enable-background:new 0 0 422 373;" xml:space="preserve">
<style type="text/css">
	.st0{fill:#FFFFFF;}
</style>
<path class="st0" d="M405.7,105.1l-66.8-88c-0.7-1-1.9-1.6-2.9-1.6H86c-1.1,0-2.2,0.6-2.9,1.5l-66.6,87.7l-0.4,0.4
	c-0.2,0.2-0.6,1-0.6,2.1s0.4,1.9,0.7,2.2l0.4,0.5l191,244.9l0.3,0.7c0.6,1.2,1.7,1.9,3.1,1.9c1.5,0,2.5-0.9,3-1.8l0.3-0.5l0.4-0.5
	l191.1-245C406.8,108.4,406.8,106.5,405.7,105.1z M265.6,23.1l27.9,80.4H128.6l28-80.3L265.6,23.1z M87.9,23.2h60.8l-28,80.2h-94
	L87.9,23.2z M171.2,296.2L27,111.2h93.8L184.2,289l0,0l15,42.9L171.2,296.2z M211,342.3l-82.4-231.1h164.7L211,342.3z M250.8,296.2
	l-28.7,35.7l15.7-42.9l63.4-177.8h93.9L250.8,296.2z M301.3,103.4l-28-80.2h60.8l61.1,80.2H301.3z"/>
</svg>
