<svg id="Layer_1" data-name="Layer 1" xmlns="http://www.w3.org/2000/svg" viewBox="0 0 197.66 38.73"><defs><style>.cls-1{fill:#fff;}.cls-2{fill:#990f08;opacity:0;}</style></defs><title>dn</title><path id="Fill-1" class="cls-1" d="M10.64,12.1V33.86H26.25c11.07,0,16.86-3.2,16.86-10.88S37.32,12.1,26.25,12.1ZM1.17,3.94H27c16.42,0,26.29,6.89,26.29,18.7s-9.92,18.7-25.94,18.7H1.17Z" transform="translate(-1.17 -2.61)"/><path class="cls-1" d="M68.39,14.77V41.34H58.6V3.94H68.9l32,27.35V3.94h9.79v37.4H99.35Z" transform="translate(-1.17 -2.61)"/><path class="cls-2" d="M181.47,9.29h9.35V2.61h-9.35Z" transform="translate(-1.17 -2.61)"/><path class="cls-2" d="M196.52,34.92H189.3V20.22h0V13.29H171.67v6.93h8.67v14.7h-9.56v6.42h28V34.92Z" transform="translate(-1.17 -2.61)"/><path class="cls-1" d="M150.36,11.76h-9.69l4.92-7.82h-5.3V4h-4.66L112,41.34h10.47l4.62-7.51h0l3.14-5.14h9.65V23h-6.25l5.22-8.47,1.67-2.65,6.5,11.21,3.26,5.51H140v6.21h13.86l.5.82h0l3.29,5.67h10.47Z" transform="translate(-1.17 -2.61)"/></svg>