<?xml version="1.0" encoding="UTF-8"?>
<svg width="148px" height="29px" viewBox="0 0 148 29" version="1.1" xmlns="http://www.w3.org/2000/svg" xmlns:xlink="http://www.w3.org/1999/xlink">
    <!-- Generator: Sketch 53.2 (72643) - https://sketchapp.com -->
    <title>Group 2</title>
    <desc>Created with Sketch.</desc>
    <g id="Symbols" stroke="none" stroke-width="1" fill="none" fill-rule="evenodd">
        <g id="header" transform="translate(0.000000, -5.000000)" fill="#FFFFFF">
            <g id="Group-2">
                <g transform="translate(0.000000, 5.000000)">
                    <path d="M7.09090909,7.10909091 L7.09090909,23.4 L18.7798582,23.4 C27.0699734,23.4 31.4025974,21.0064657 31.4025974,15.2549633 C31.4025974,9.50262518 27.0699734,7.10909091 18.7798582,7.10909091 L7.09090909,7.10909091 Z M0,1 L19.3113772,1 C31.6069679,1 39,6.15822614 39,15.0004198 C39,23.8417739 31.5694066,29 19.5751225,29 L0,29 L0,1 Z" id="Fill-1"></path>
                    <polygon id="Fill-3" points="50.3298287 9.10506432 50.3298287 29 43 29 43 1 50.7156531 1 74.6710064 21.4759078 74.6710064 1 82 1 82 29 73.5135332 29"></polygon>
                    <polygon id="Fill-5" points="135 5 142 5 142 0 135 0"></polygon>
                    <polygon id="Fill-7" points="146.270755 24.1923247 140.94846 24.1923247 140.86906 24.1923247 140.86906 13.1857882 140.879089 13.1857882 140.879089 8 140.86906 8 134.157685 8 127.66863 8 127.66863 13.1857882 134.157685 13.1857882 134.157685 24.1923247 132.322296 24.1923247 127 24.1923247 127 29 132.322296 29 140.94846 29 146.270755 29 148 29 148 24.1923247"></polygon>
                    <polygon id="Fill-8" points="111.708208 6.85203608 104.452543 6.85203608 108.136112 1 104.169704 1 104.166376 1.01845803 100.675804 1.01845803 83 29 90.8396451 29 94.2969418 23.3803674 94.3194026 23.3803674 96.669466 19.5285111 103.898511 19.5285111 103.898511 15.3016211 99.2216764 15.3016211 103.127357 8.95793006 104.377674 6.9711743 109.247504 15.3679022 111.69157 19.494112 103.924299 19.494112 103.924299 24.1413418 114.302844 24.1413418 114.674695 24.758847 114.693828 24.75633 117.160355 29 125 29"></polygon>
                </g>
            </g>
        </g>
    </g>
</svg>