<?xml version="1.0" encoding="utf-8"?>
<!-- Generator: Adobe Illustrator 21.1.0, SVG Export Plug-In . SVG Version: 6.00 Build 0)  -->
<svg version="1.1" id="Layer_1" xmlns="http://www.w3.org/2000/svg" xmlns:xlink="http://www.w3.org/1999/xlink" x="0px" y="0px"
	 viewBox="0 0 148 29" style="enable-background:new 0 0 148 29;" xml:space="preserve">
<style type="text/css">
	.st0{fill:#1F1F21;}
</style>
<title>Group 2</title>
<desc>Created with Sketch.</desc>
<g id="Symbols">
	<g id="header" transform="translate(0.000000, -5.000000)">
		<g id="Group-2">
			<g transform="translate(0.000000, 5.000000)">
				<path id="Fill-1" class="st0" d="M7.1,7.1v16.3h11.7c8.3,0,12.6-2.4,12.6-8.1c0-5.8-4.3-8.1-12.6-8.1H7.1z M0,1h19.3
					C31.6,1,39,6.2,39,15c0,8.8-7.4,14-19.4,14H0V1z"/>
				<polygon id="Fill-3" class="st0" points="50.3,9.1 50.3,29 43,29 43,1 50.7,1 74.7,21.5 74.7,1 82,1 82,29 73.5,29 				"/>
				<polygon id="Fill-5" class="st0" points="135,5 142,5 142,0 135,0 				"/>
				<polygon id="Fill-7" class="st0" points="146.3,24.2 140.9,24.2 140.9,24.2 140.9,13.2 140.9,13.2 140.9,8 140.9,8 134.2,8 
					127.7,8 127.7,13.2 134.2,13.2 134.2,24.2 132.3,24.2 127,24.2 127,29 132.3,29 140.9,29 146.3,29 148,29 148,24.2 				"/>
				<polygon id="Fill-8" class="st0" points="111.7,6.9 104.5,6.9 108.1,1 104.2,1 104.2,1 100.7,1 83,29 90.8,29 94.3,23.4 
					94.3,23.4 96.7,19.5 103.9,19.5 103.9,15.3 99.2,15.3 103.1,9 104.4,7 109.2,15.4 111.7,19.5 103.9,19.5 103.9,24.1 114.3,24.1 
					114.7,24.8 114.7,24.8 117.2,29 125,29 				"/>
			</g>
		</g>
	</g>
</g>
</svg>
