<?xml version="1.0" encoding="utf-8"?>
<!-- Generator: Adobe Illustrator 21.1.0, SVG Export Plug-In . SVG Version: 6.00 Build 0)  -->
<svg version="1.1" id="Layer_1" xmlns="http://www.w3.org/2000/svg" xmlns:xlink="http://www.w3.org/1999/xlink" x="0px" y="0px"
	 viewBox="0 0 605 341" style="enable-background:new 0 0 605 341;" xml:space="preserve">
<style type="text/css">
	.st0{fill:#FFFFFF;}
</style>
<title>noun_Eye_1196175</title>
<desc>Created with Sketch.</desc>
<g id="Group">
	<path class="st0" d="M578.4,170.2C472.2,66.8,382.3,18.6,295.6,18.6S119,66.8,12.7,170.2c-0.9,1-1.6,2.8-1.6,4.4s0.7,3.4,1.6,4.4
		c99.4,96.6,191.9,143.5,282.9,143.5S479.1,275.6,578.5,179c0.9-1,1.6-2.8,1.6-4.4S579.4,171.1,578.4,170.2z M560.9,181.1
		C467.7,268.8,381,311.4,295.7,311.4S123.8,268.8,31,181.1l-6.9-6.5l6.9-6.5c49.2-46.8,93.7-80.5,136.1-103
		c44.3-23.5,86.3-34.9,128.6-34.9s84.4,11.4,128.7,34.9c42.5,22.5,87.2,56.2,136.5,103l6.9,6.6L560.9,181.1z"/>
	<path class="st0" d="M295.6,65.3c-58.2,0-105.5,47.4-105.5,105.6s47.3,105.6,105.5,105.6s105.5-47.4,105.5-105.6
		S353.8,65.3,295.6,65.3z M295.6,265.9c-52.3,0-94.9-42.6-94.9-95s42.6-95,94.9-95s94.9,42.6,94.9,95S347.9,265.9,295.6,265.9z"/>
	<path class="st0" d="M334.8,131.6c-10.4-10.4-24.4-16.2-39.3-16.2c-2.9,0-5.3,2.4-5.3,5.3s2.4,5.3,5.3,5.3
		c25.1,0,44.8,19.7,44.8,44.8s-19.7,44.8-44.8,44.8s-44.8-19.7-44.8-44.8c0-2.9-2.4-5.3-5.3-5.3c-2.9,0-5.3,2.4-5.3,5.3
		c0,14.9,5.7,28.9,16.2,39.3c10.4,10.4,24.4,16.2,39.3,16.2s28.9-5.7,39.3-16.2c10.4-10.4,16.2-24.4,16.2-39.3
		S345.3,142.1,334.8,131.6z"/>
</g>
</svg>
