<?xml version="1.0" encoding="UTF-8"?>
<svg width="736px" height="832px" viewBox="0 0 736 832" version="1.1" xmlns="http://www.w3.org/2000/svg" xmlns:xlink="http://www.w3.org/1999/xlink">
    <!-- Generator: Sketch 55.2 (78181) - https://sketchapp.com -->
    <title>Group 2</title>
    <desc>Created with Sketch.</desc>
    <g id="current" stroke="none" stroke-width="1" fill="none" fill-rule="evenodd">
        <g id="smart-city" transform="translate(-915.000000, -1184.000000)">
            <g id="Group-2" transform="translate(915.000000, 1184.000000)">
                <path d="M130,248 L130,502" id="Line-4-Copy" stroke="#FFFFFF" stroke-width="3" stroke-linecap="square" transform="translate(130.000000, 375.000000) rotate(-90.000000) translate(-130.000000, -375.000000) "></path>
                <path d="M160,295 L160,609" id="Line-4-Copy-5" stroke="#FFFFFF" stroke-width="2" stroke-linecap="round" stroke-linejoin="round" stroke-dasharray="1,5" transform="translate(160.000000, 452.000000) rotate(-90.000000) translate(-160.000000, -452.000000) "></path>
                <path d="M321.882,452 L321.882,578.118" id="Line-4-Copy-6" stroke="#FFFFFF" stroke-width="2" stroke-linecap="round" stroke-linejoin="round" stroke-dasharray="1,5" transform="translate(321.882000, 515.500000) rotate(0.000000) translate(-321.882000, -515.500000) "></path>
                <path d="M537,403 L537,505" id="Line-4-Copy-2" stroke="#FFFFFF" stroke-width="3" stroke-linecap="square" transform="translate(537.000000, 454.000000) rotate(-90.000000) translate(-537.000000, -454.000000) "></path>
                <path d="M674.5,394.25351 L674.5,514.5" id="Line-4-Copy-3" stroke="#FFFFFF" stroke-width="3" stroke-linecap="square" transform="translate(674.500000, 454.000000) scale(-1, -1) rotate(-90.000000) translate(-674.500000, -454.000000) "></path>
                <path d="M607.5,248.255657 L607.5,502.5" id="Line-4-Copy-4" stroke="#FFFFFF" stroke-width="3" stroke-linecap="square" transform="translate(607.500000, 375.000000) scale(-1, -1) rotate(-90.000000) translate(-607.500000, -375.000000) "></path>
                <circle id="Oval" stroke="#FFFFFF" stroke-width="3" cx="369" cy="423" r="90"></circle>
                <text id="Model-training" transform="translate(398.500000, 431.500000) rotate(90.000000) translate(-398.500000, -431.500000) " font-family="GTAmerica-Medium, GT America" font-size="12" font-weight="400" fill="#FFFFFF">
                    <tspan x="348" y="436">Model training</tspan>
                </text>
                <path d="M369,333 L369.5,513" id="Line" stroke="#FFFFFF" stroke-width="3" stroke-linecap="square"></path>
                <text id="Training-output" font-family="GTAmerica-Medium, GT America" font-size="12" font-weight="400" fill="#FFFFFF">
                    <tspan x="486" y="493">Training output</tspan>
                </text>
                <text id="New-geometrical-para" font-family="GTAmerica-Medium, GT America" font-size="12" font-weight="400" fill="#FFFFFF">
                    <tspan x="0" y="404">New geometrical</tspan>
                    <tspan x="0" y="418">parameters</tspan>
                </text>
                <text id="All-operating-condit" font-family="GTAmerica-Medium, GT America" font-size="12" font-weight="400" fill="#FFFFFF">
                    <tspan x="3" y="493">All operating conditions</tspan>
                </text>
                <text id="Measured-performance" font-family="GTAmerica-Medium, GT America" font-size="12" font-weight="400" fill="#FFFFFF">
                    <tspan x="604.292" y="494">Measured performance </tspan>
                    <tspan x="670.388" y="508">parameters</tspan>
                </text>
                <text id="Physial-laws,-engine" font-family="GTAmerica-Medium, GT America" font-size="12" font-weight="400" fill="#FFFFFF">
                    <tspan x="662.156" y="404">Physial laws,</tspan>
                    <tspan x="637.328" y="418">engineering hints</tspan>
                </text>
                <text id="(e.g.-efficiency)-fo" font-family="GTAmerica-Medium, GT America" font-size="9" font-weight="400" fill="#FFFFFF">
                    <tspan x="298.0215" y="819">(e.g. efficiency) for all operating </tspan>
                    <tspan x="286.533" y="830">conditions (e.g.  wind turbine speeds)</tspan>
                </text>
                <text id="Trained-model" transform="translate(339.500000, 409.500000) rotate(-90.000000) translate(-339.500000, -409.500000) " font-family="GTAmerica-Medium, GT America" font-size="12" font-weight="400" fill="#FFFFFF">
                    <tspan x="289" y="414">Trained model</tspan>
                </text>
                <g id="full-spectrum" transform="translate(305.000000, 609.000000)" fill="#FFFFFF" fill-rule="nonzero">
                    <path d="M119.897059,75.8970588 L119.102941,75.8970588 L119.102941,75.1029412 C119.102941,74.4852941 118.617647,74 118,74 C117.382353,74 116.897059,74.4852941 116.897059,75.1029412 L116.897059,75.8970588 L116.102941,75.8970588 C115.485294,75.8970588 115,76.3823529 115,77 C115,77.6176471 115.485294,78.1029412 116.102941,78.1029412 L116.897059,78.1029412 L116.897059,78.8970588 C116.897059,79.5147059 117.382353,80 118,80 C118.617647,80 119.102941,79.5147059 119.102941,78.8970588 L119.102941,78.1029412 L119.897059,78.1029412 C120.514706,78.1029412 121,77.6176471 121,77 C121,76.3823529 120.514706,75.8970588 119.897059,75.8970588 Z" id="Path"></path>
                    <path d="M22.0425532,12.5957447 L21.3510638,12.5957447 L21.3510638,11.9042553 C21.3510638,11.4255319 20.9255319,11 20.4468085,11 C19.9680851,11 19.5957447,11.4255319 19.5425532,11.9042553 L19.5425532,12.5957447 L18.9042553,12.5957447 C18.4255319,12.5957447 18,13.0212766 18,13.5 C18,13.9787234 18.4255319,14.3510638 18.9042553,14.4042553 L19.5957447,14.4042553 L19.5957447,15.0957447 C19.5957447,15.5744681 20.0212766,16 20.5,16 C20.9787234,16 21.3510638,15.5744681 21.4042553,15.0957447 L21.4042553,14.4042553 L22.0957447,14.4042553 C22.5744681,14.4042553 23,13.9787234 23,13.5 C22.9468085,13.0212766 22.5212766,12.6489362 22.0425532,12.5957447 Z" id="Path"></path>
                    <path d="M55,14.7860697 C55,14.7064677 54.9589744,14.6666667 54.9589744,14.5870647 C54.9179487,14.5472637 54.9179487,14.4676617 54.8769231,14.4278607 C54.8358974,14.3880597 54.7948718,14.3084577 54.7538462,14.2686567 C54.3435897,13.9104478 53.7282051,13.9104478 53.3179487,14.2686567 C53.2769231,14.3084577 53.2358974,14.3482587 53.1948718,14.4278607 C53.1128205,14.5472637 53.0717949,14.6666667 53.0307692,14.7860697 C52.9897436,14.9054726 52.9897436,15.0646766 53.0307692,15.1840796 C53.0307692,15.2636816 53.0717949,15.3034826 53.0717949,15.3830846 C53.1128205,15.4626866 53.1128205,15.5024876 53.1538462,15.5422886 C53.1948718,15.5820896 53.2358974,15.6616915 53.2769231,15.7014925 C53.6871795,16.0995025 54.3025641,16.0995025 54.7128205,15.7014925 C54.7128205,15.7014925 54.7128205,15.7014925 54.7128205,15.7014925 C54.7538462,15.6616915 54.7948718,15.6218905 54.8358974,15.5422886 C54.8769231,15.5024876 54.9179487,15.4228856 54.9179487,15.3830846 C54.9589744,15.3432836 54.9589744,15.2636816 54.9589744,15.1840796 C55,15.0646766 55,14.9452736 55,14.7860697 Z" id="Path"></path>
                    <path d="M112.97341,84.7860697 C112.97341,84.7064677 112.93293,84.6666667 112.93293,84.5870647 C112.89245,84.5472637 112.89245,84.4676617 112.85197,84.4278607 C112.81149,84.3880597 112.771009,84.3084577 112.730529,84.2686567 C112.325727,83.9104478 111.718524,83.9104478 111.313722,84.2686567 C111.273241,84.3084577 111.232761,84.3482587 111.192281,84.4278607 C111.111321,84.5472637 111.07084,84.6666667 111.03036,84.7860697 C110.98988,84.9054726 110.98988,85.0646766 111.03036,85.1840796 C111.03036,85.2636816 111.07084,85.3034826 111.07084,85.3830846 C111.111321,85.4626866 111.111321,85.5024876 111.151801,85.5422886 C111.192281,85.5820896 111.232761,85.6616915 111.273241,85.7014925 C111.678044,86.0995025 112.285247,86.0995025 112.690049,85.7014925 C112.690049,85.7014925 112.690049,85.7014925 112.690049,85.7014925 C112.730529,85.6616915 112.771009,85.6218905 112.81149,85.5422886 C112.85197,85.5024876 112.89245,85.4228856 112.89245,85.3830846 C112.93293,85.3432836 112.93293,85.2636816 112.93293,85.1840796 C113.013891,85.0646766 113.013891,84.9054726 112.97341,84.7860697 Z" id="Path"></path>
                    <path d="M49.8928571,4.39285714 C47.6964286,3.96428571 46.0357143,2.25 45.6071429,0.107142857 C45.6071429,0.0535714286 45.5535714,0 45.5,0 C45.4464286,0 45.4464286,0.0535714286 45.3928571,0.107142857 C44.9642857,2.30357143 43.25,3.96428571 41.1071429,4.39285714 C41.0535714,4.39285714 41,4.44642857 41,4.5 C41,4.55357143 41.0535714,4.55357143 41.1071429,4.60714286 C43.3035714,5.03571429 44.9642857,6.75 45.3928571,8.89285714 C45.3928571,8.94642857 45.4464286,9 45.5,9 C45.5535714,9 45.5535714,8.94642857 45.6071429,8.89285714 C46.0357143,6.69642857 47.75,5.03571429 49.8928571,4.60714286 C49.9464286,4.60714286 50,4.55357143 50,4.5 C49.9464286,4.44642857 49.8928571,4.39285714 49.8928571,4.39285714 Z" id="Path"></path>
                    <path d="M5,108 C4.44,108 4,107.456602 4,106.765005 L4,2.23499538 C4,1.54339797 4.44,1 5,1 C5.56,1 6,1.54339797 6,2.23499538 L6,106.715605 C6,107.407202 5.56,108 5,108 Z" id="Path"></path>
                    <path d="M125.769508,108 L5.2304922,108 C4.54141657,108 4,107.56 4,107 C4,106.44 4.54141657,106 5.2304922,106 L125.769508,106 C126.458583,106 127,106.44 127,107 C127,107.56 126.458583,108 125.769508,108 Z" id="Path"></path>
                    <path d="M3.87387387,16 L1.12612613,16 C0.495495495,16 0,15.56 0,15 C0,14.44 0.495495495,14 1.12612613,14 L3.87387387,14 C4.5045045,14 5,14.44 5,15 C5,15.56 4.5045045,16 3.87387387,16 Z" id="Path"></path>
                    <path d="M3.87387387,34 L1.12612613,34 C0.495495495,34 0,33.56 0,33 C0,32.44 0.495495495,32 1.12612613,32 L3.87387387,32 C4.5045045,32 5,32.44 5,33 C5,33.56 4.5045045,34 3.87387387,34 Z" id="Path"></path>
                    <path d="M3.87387387,53 L1.12612613,53 C0.495495495,53 0,52.56 0,52 C0,51.44 0.495495495,51 1.12612613,51 L3.87387387,51 C4.5045045,51 5,51.44 5,52 C5,52.56 4.5045045,53 3.87387387,53 Z" id="Path"></path>
                    <path d="M3.87387387,72 L1.12612613,72 C0.495495495,72 0,71.56 0,71 C0,70.44 0.495495495,70 1.12612613,70 L3.87387387,70 C4.5045045,70 5,70.44 5,71 C5,71.56 4.5045045,72 3.87387387,72 Z" id="Path"></path>
                    <path d="M3.87387387,91 L1.12612613,91 C0.495495495,91 0,90.56 0,90 C0,89.44 0.495495495,89 1.12612613,89 L3.87387387,89 C4.5045045,89 5,89.44 5,90 C5,90.56 4.5045045,91 3.87387387,91 Z" id="Path"></path>
                    <path d="M23,111 C22.44,111 22,110.490741 22,109.842593 L22,107.157407 C22,106.509259 22.44,106 23,106 C23.56,106 24,106.509259 24,107.157407 L24,109.842593 C24,110.444444 23.56,111 23,111 Z" id="Path"></path>
                    <path d="M42,111 C41.44,111 41,110.490741 41,109.842593 L41,107.157407 C41,106.509259 41.44,106 42,106 C42.56,106 43,106.509259 43,107.157407 L43,109.842593 C43,110.444444 42.56,111 42,111 Z" id="Path"></path>
                    <path d="M61,111 C60.44,111 60,110.490741 60,109.842593 L60,107.157407 C60,106.509259 60.44,106 61,106 C61.56,106 62,106.509259 62,107.157407 L62,109.842593 C62,110.444444 61.52,111 61,111 Z" id="Path"></path>
                    <path d="M82,111 C81.44,111 81,110.490741 81,109.842593 L81,107.157407 C81,106.509259 81.44,106 82,106 C82.56,106 83,106.509259 83,107.157407 L83,109.842593 C83,110.444444 82.56,111 82,111 Z" id="Path"></path>
                    <path d="M101,111 C100.44,111 100,110.490741 100,109.842593 L100,107.157407 C100,106.509259 100.44,106 101,106 C101.56,106 102,106.509259 102,107.157407 L102,109.842593 C102,110.444444 101.56,111 101,111 Z" id="Path"></path>
                    <path d="M119.814189,108 L5.23521959,108 C4.54349662,108 4,107.456578 4,106.764951 C4,106.419137 4.14822635,106.073323 4.39527027,105.875715 C4.54349662,105.727509 20.2060811,90.2152886 28.2597128,21.9417577 C29.1490709,14.5314613 32.7559122,13 35.6216216,13 C38.4873311,13 42.0941723,14.5314613 42.9835304,21.8923557 C48.7643581,69.5158606 56.0274493,82.4591784 61.1165541,84.9292772 C64.7233953,86.7077483 68.0831926,86.9547582 71.0971284,85.7691108 C75.7909628,83.9412376 79.8424831,78.5564223 83.1528716,69.8122725 C84.8821791,65.3166927 87.5502534,62.8465939 90.5641892,62.9947998 C93.9239865,63.1924077 96.7896959,66.650546 98.2719595,72.3317733 C104.102196,94.3650546 111.315878,105.529901 119.76478,105.529901 C120.456503,105.529901 121,106.073323 121,106.764951 C121,107.456578 120.505912,108 119.814189,108 L119.814189,108 Z M7.90329392,105.529901 L112.353463,105.529901 C105.930321,100.984919 100.495355,90.2152886 95.9497466,72.973999 L95.9497466,72.973999 C94.7639358,68.4784191 92.6887669,65.6131045 90.4653716,65.5143006 C88.6372466,65.4154966 86.7597128,67.3915757 85.4750845,70.75091 C81.8682432,80.1372855 77.3226351,85.9667187 71.9864865,88.0910036 C68.3302365,89.5236609 64.2787162,89.2272491 59.980152,87.1523661 C51.6794764,83.150806 45.3057432,61.9079563 40.4636824,22.1887676 C39.6237331,15.4700988 36.5603885,15.4700988 35.5722128,15.4700988 C34.5840372,15.4700988 31.4712838,15.4700988 30.6313345,22.2381695 C24.0599662,78.7540302 12.3994932,99.4040562 7.90329392,105.529901 Z" id="Shape"></path>
                    <path d="M81.7661575,108 L42.2338425,108 C41.5428907,108 41,107.456875 41,106.765625 L41,30.234375 C41,29.543125 41.5428907,29 42.2338425,29 C42.8754407,29 43.3689777,29.444375 43.4676851,30.08625 C49.0940071,71.314375 55.8554642,82.670625 60.4947121,84.941875 C63.9494712,86.620625 67.1574618,86.96625 70.0693302,85.929375 C74.06698,84.546875 77.6204465,80.596875 80.680376,74.2275 C80.9764982,73.635 81.7168038,73.33875 82.3090482,73.635 C82.7532315,73.8325 83,74.276875 83,74.770625 L83,106.765625 C83,107.4075 82.4571093,108 81.7661575,108 C81.7661575,108 81.7661575,108 81.7661575,108 Z M43.4676851,105.53125 L80.5816686,105.53125 L80.5816686,79.56 C77.7191539,84.053125 74.5111633,87.015625 70.9083431,88.25 C67.3548766,89.484375 63.5052879,89.089375 59.4582844,87.114375 C53.0423032,84.00375 47.8108108,70.57375 43.5170388,46.231875 L43.5170388,105.53125 L43.4676851,105.53125 Z" id="Shape"></path>
                </g>
                <g id="3d-modeling" transform="translate(308.000000, 69.000000)" fill="#FFFFFF" fill-rule="nonzero" stroke="#000000">
                    <path d="M90.9985316,30.3649924 C91.0540454,27.8367734 89.5311077,25.5392781 87.1768919,24.5997501 C84.8226761,23.6602221 82.1310887,24.2756439 80.4223106,26.1442448 L66.5116852,18.9181482 C66.5593366,18.64204 66.5876892,18.3630805 66.5962664,18.082933 C66.5962664,14.7235382 63.8653665,12 60.4968914,12 C57.1284162,12 54.3975164,14.7233006 54.3975164,18.082933 C54.4060936,18.3628429 54.4344462,18.64204 54.4820975,18.9181482 L40.5714721,26.1442448 C38.8624559,24.2787329 36.1725362,23.6654497 33.8204647,24.6049777 C31.4683932,25.5445057 29.9466468,27.8401 30.0014458,30.3664181 C30.0562449,32.8927362 31.6756766,35.1206104 34.0663457,35.9579642 L34.0663457,50.8989306 C31.6363643,51.7524422 30.008117,54.0390072 30.0000081,56.6083335 C29.9959659,59.0833269 31.4984136,61.313102 33.7978303,62.2447887 C36.0970088,63.1762378 38.7330824,62.6230711 40.460921,60.846427 L54.4978225,69.8109118 C54.0532352,72.210819 55.0898907,74.6435169 57.1307988,75.9900787 C59.1717069,77.3366404 61.8218377,77.3366404 63.8627457,75.9900787 C65.9036538,74.6435169 66.940071,72.210819 66.495722,69.8109118 L80.5326235,60.846427 C82.2809522,62.6482582 84.9603886,63.1928708 87.276245,62.2167502 C89.5921015,61.2406295 91.0678643,58.9450352 90.9906691,56.4386767 C90.9134739,53.9323182 89.2990456,51.7315321 86.9271988,50.8991683 L86.9271988,35.9584394 C89.320727,35.1220361 90.9430178,32.8932114 90.9985316,30.3649924 Z M60.4968914,16.0551302 C61.6197959,16.0551302 62.529937,16.9628179 62.529937,18.0826954 C62.529937,19.2025728 61.6197959,20.1102605 60.4968914,20.1102605 C59.3739869,20.1102605 58.4638458,19.2025728 58.4638458,18.0826954 C58.4647988,16.9632931 59.3744634,16.0560807 60.4968914,16.0551302 Z M42.162313,29.8892881 L56.3514607,22.5182465 C58.6763709,24.7147556 62.3174119,24.7147556 64.6423221,22.5182465 L78.8314697,29.8892881 C78.824322,30.0104715 78.7950164,30.1254769 78.7950164,30.2485613 C78.8012111,30.579796 78.8345671,30.9098426 78.8950843,31.2356122 L64.4452837,39.8441504 C62.1875619,37.8641082 58.8066974,37.8641082 56.5487373,39.8441504 L42.0989367,31.2356122 C42.159454,30.9098426 42.1928099,30.579796 42.1987663,30.2485613 C42.1987663,30.1254769 42.169699,30.0104715 42.162313,29.8892881 Z M62.529937,44.4419923 C62.529937,45.5618698 61.6197959,46.4695575 60.4968914,46.4695575 C59.3739869,46.4695575 58.4638458,45.5618698 58.4638458,44.4419923 C58.4638458,43.3221149 59.3739869,42.4144272 60.4968914,42.4144272 C61.6193193,42.4156153 62.5289839,43.3225901 62.529937,44.4419923 Z M36.0993913,28.2209962 C37.2222958,28.2209962 38.1324369,29.1286838 38.1324369,30.2485613 C38.1324369,31.3684388 37.2220575,32.2761264 36.0993913,32.2761264 C34.9764869,32.2761264 34.0663457,31.3684388 34.0663457,30.2485613 C34.0672988,29.1291591 34.9769634,28.2219466 36.0993913,28.2209962 Z M36.0993913,58.635661 C34.9764869,58.635661 34.0663457,57.7279734 34.0663457,56.6080959 C34.0663457,55.4882184 34.9767251,54.5805308 36.0993913,54.5805308 C37.2222958,54.5805308 38.1324369,55.4882184 38.1324369,56.6080959 C38.1314839,57.7272605 37.2218193,58.6344729 36.0993913,58.635661 Z M56.4794046,66.2604749 L42.1480176,57.1080369 C42.1620748,56.9402811 42.1985281,56.7791784 42.1985281,56.6080959 C42.1906656,54.0387696 40.5621801,51.7524422 38.1321987,50.898693 L38.1321987,35.9579642 C38.8657915,35.697301 39.5422026,35.2983461 40.1247406,34.7827225 L54.5078293,43.3515791 C53.9338686,46.286119 55.6243008,49.19167 58.4636075,50.1513952 L58.4636075,65.0923617 C57.7335886,65.3515992 57.0600365,65.7481779 56.4794046,66.2604749 Z M60.4968914,72.8290921 C59.3739869,72.8290921 58.4638458,71.9214044 58.4638458,70.8015269 C58.4638458,69.6816495 59.3739869,68.7739618 60.4968914,68.7739618 C61.6197959,68.7739618 62.529937,69.6816495 62.529937,70.8015269 C62.5289839,71.9209292 61.6193193,72.827904 60.4968914,72.8290921 Z M82.8611076,50.8984554 C80.4311261,51.7522046 78.8028789,54.0385319 78.7950164,56.6078583 C78.7950164,56.7789408 78.831708,56.9400434 78.8457651,57.1077993 L64.5143782,66.2602373 C63.9337463,65.7479403 63.2601942,65.3513616 62.529937,65.0918865 L62.529937,50.1511576 C65.3692437,49.1914323 67.0596759,46.2858814 66.4857152,43.3511039 L80.8688039,34.7822473 C81.4511036,35.2978709 82.1277531,35.6968257 82.8613459,35.9572513 L82.8613459,50.8984554 L82.8611076,50.8984554 Z M84.8943915,58.635661 C83.771487,58.635661 82.8613459,57.7279734 82.8613459,56.6080959 C82.8613459,55.4882184 83.771487,54.5805308 84.8943915,54.5805308 C86.0172959,54.5805308 86.927437,55.4882184 86.927437,56.6080959 C86.926484,57.7272605 86.0168194,58.6344729 84.8943915,58.635661 Z M84.8943915,32.2761264 C83.771487,32.2761264 82.8613459,31.3684388 82.8613459,30.2485613 C82.8625371,29.1291591 83.7719635,28.2219466 84.8943915,28.2209962 C86.0172959,28.2209962 86.927437,29.1286838 86.927437,30.2485613 C86.927437,31.3684388 86.0172959,32.2761264 84.8943915,32.2761264 Z" id="Shape"></path>
                    <path d="M111.833254,0 L10.1667461,0 C4.55450781,0.00667186196 0.006671875,4.55449891 0,10.1667262 L0,95.5665593 C0.006671875,101.178787 4.55450781,105.726614 10.1667461,105.733286 L42.7,105.733286 L42.7,109.799785 L28.4667461,109.799785 C27.9275156,109.799547 27.410207,110.013762 27.0287188,110.395249 C26.6474688,110.776498 26.4332539,111.293806 26.4332539,111.833274 L26.4332539,119.966512 C26.4330156,120.505741 26.6472305,121.023049 27.0287188,121.404536 C27.4099688,121.785785 27.9272773,122 28.4667461,122 L93.5334922,122 C94.0727227,122 94.5900313,121.786024 94.9715195,121.404536 C95.3527695,121.023287 95.5669844,120.505979 95.5669844,119.966512 L95.5669844,111.833274 C95.5672227,111.294044 95.3530078,110.776737 94.9715195,110.395249 C94.5902695,110.014 94.0729609,109.799785 93.5334922,109.799785 L79.3,109.799785 L79.3,105.733047 L111.833254,105.733047 C117.445492,105.726375 121.993328,101.178548 122,95.566321 L122,10.1664879 C121.993328,4.55449891 117.445492,0.00667186196 111.833254,0 Z M91.5,113.866524 L91.5,117.933262 L30.5,117.933262 L30.5,113.866524 L91.5,113.866524 Z M46.7667461,109.799785 L46.7667461,105.733047 L75.2334922,105.733047 L75.2334922,109.799785 L46.7667461,109.799785 Z M117.933492,95.5665593 C117.92968,98.9339433 115.200645,101.662973 111.833254,101.666547 L10.1667461,101.666547 C6.79935547,101.662973 4.07032031,98.9339433 4.06674609,95.5665593 L4.06674609,89.4665712 L117.933492,89.4665712 L117.933492,95.5665593 L117.933492,95.5665593 Z M117.933492,85.3998331 L4.06674609,85.3998331 L4.06674609,10.1667262 C4.07032031,6.79934218 6.79935547,4.07031236 10.1667461,4.06673814 L111.833492,4.06673814 C115.200883,4.07031236 117.929918,6.79934218 117.933492,10.1667262 L117.933492,85.3998331 L117.933492,85.3998331 Z" id="Shape"></path>
                </g>
                <rect id="Rectangle" stroke="#979797" fill="#FFFFFF" x="310.5" y="0.5" width="118" height="34" rx="17"></rect>
                <rect id="Rectangle-Copy" fill="#FFFFFF" x="276" y="750" width="186" height="35" rx="17.5"></rect>
                <text id="CAD-Models" font-family="GTAmerica-Medium, GT America" font-size="14" font-weight="400" fill="#000000">
                    <tspan x="328" y="22">CAD Models</tspan>
                </text>
                <text id="Predicted-performanc" font-family="GTAmerica-Medium, GT America" font-size="14" font-weight="400" fill="#000000">
                    <tspan x="295.614" y="772">Predicted performance</tspan>
                </text>
                <path d="M369,275 L369,305.51284" id="Line-4" stroke="#FFFFFF" stroke-width="3" stroke-linecap="square"></path>
                <path d="M369,190.75642 L369,221.26926" id="Line-4-Copy-7" stroke="#FFFFFF" stroke-width="3" stroke-linecap="square"></path>
                <text id="Geometrical-paramete" font-family="GTAmerica-Medium, GT America" font-size="12" font-weight="400" fill="#FFFFFF">
                    <tspan x="299" y="251">Geometrical parameters</tspan>
                </text>
                <polygon id="Fill-1" fill="#FFFFFF" transform="translate(368.618000, 300.500000) scale(1, -1) rotate(90.000000) translate(-368.618000, -300.500000) " points="372.807 289 360 299.062 360 301.947 372.533 312 377.236 312 362.759 300.375 377.177 289"></polygon>
                <polygon id="Fill-1-Copy-9" fill="#FFFFFF" transform="translate(485.618000, 375.500000) scale(1, -1) translate(-485.618000, -375.500000) " points="489.807 364 477 374.062 477 376.947 489.533 387 494.236 387 479.759 375.375 494.177 364"></polygon>
                <polygon id="Fill-1-Copy-11" fill="#FFFFFF" transform="translate(583.618000, 454.500000) scale(-1, -1) translate(-583.618000, -454.500000) " points="587.807 443 575 453.062 575 455.947 587.533 466 592.236 466 577.759 454.375 592.177 443"></polygon>
                <polygon id="Fill-1-Copy-12" fill="#FFFFFF" transform="translate(620.618000, 454.500000) scale(1, -1) translate(-620.618000, -454.500000) " points="624.807 443 612 453.062 612 455.947 624.533 466 629.236 466 614.759 454.375 629.177 443"></polygon>
                <polygon id="Fill-1-Copy-5" fill="#FFFFFF" transform="translate(321.618000, 569.500000) scale(1, -1) rotate(90.000000) translate(-321.618000, -569.500000) " points="325.807 558 313 568.062 313 570.947 325.533 581 330.236 581 315.759 569.375 330.177 558"></polygon>
                <polygon id="Fill-1-Copy" fill="#FFFFFF" transform="translate(252.618000, 375.500000) scale(-1, -1) translate(-252.618000, -375.500000) " points="256.807 364 244 374.062 244 376.947 256.533 387 261.236 387 246.759 375.375 261.177 364"></polygon>
            </g>
        </g>
    </g>
</svg>