<?xml version="1.0" encoding="UTF-8"?>
<svg width="839px" height="709px" viewBox="0 0 839 709" version="1.1" xmlns="http://www.w3.org/2000/svg" xmlns:xlink="http://www.w3.org/1999/xlink">
    <!-- Generator: Sketch 55.2 (78181) - https://sketchapp.com -->
    <title>Group 4</title>
    <desc>Created with Sketch.</desc>
    <g id="current" stroke="none" stroke-width="1" fill="none" fill-rule="evenodd">
        <g id="smart-city" transform="translate(-876.000000, -2357.000000)">
            <g id="Group-4" transform="translate(877.000000, 2357.000000)">
                <text id="•-product-•-machine" font-family="GTAmerica-Medium, GT America" font-size="12" font-weight="400" line-spacing="16" fill="#FFFFFF">
                    <tspan x="69" y="364">•  product</tspan>
                    <tspan x="69" y="380">•  machine</tspan>
                    <tspan x="69" y="396">•  production line</tspan>
                    <tspan x="69" y="412">•  factory</tspan>
                    <tspan x="69" y="428">•  human</tspan>
                    <tspan x="69" y="444">•  house</tspan>
                </text>
                <text id="•-100%-transparent-•" font-family="GTAmerica-Medium, GT America" font-size="12" font-weight="400" line-spacing="16" fill="#FFFFFF">
                    <tspan x="707" y="277">•  100% transparent</tspan>
                    <tspan x="707" y="293">•  100% available</tspan>
                    <tspan x="707" y="309">•  single point of access</tspan>
                    <tspan x="707" y="325">•  unified model</tspan>
                    <tspan x="707" y="341">•  near real time</tspan>
                </text>
                <circle id="Oval-Copy" stroke="#FFFFFF" stroke-width="3" cx="744.5" cy="197.5" r="37.5"></circle>
                <text id="Measurement" font-family="GTAmerica-Medium, GT America" font-size="11" font-weight="400" fill="#FFFFFF">
                    <tspan x="287" y="261">Measurement</tspan>
                </text>
                <text id="observed,-estimated" font-family="GTAmerica-Medium, GT America" font-size="9" font-weight="400" fill="#FFFFFF">
                    <tspan x="487.223" y="58">observed, estimated states</tspan>
                </text>
                <text id="real-states" font-family="GTAmerica-Medium, GT America" font-size="9" font-weight="400" fill="#FFFFFF">
                    <tspan x="84.5445" y="58">real states</tspan>
                </text>
                <text id="Delay" font-family="GTAmerica-Medium, GT America" font-size="11" font-weight="400" fill="#FFFFFF">
                    <tspan x="287" y="176">Delay</tspan>
                </text>
                <text id="Outage" font-family="GTAmerica-Medium, GT America" font-size="11" font-weight="400" fill="#FFFFFF">
                    <tspan x="285" y="218">Outage</tspan>
                </text>
                <text id="Hidden-state" font-family="GTAmerica-Medium, GT America" font-size="11" font-weight="400" fill="#FFFFFF">
                    <tspan x="287" y="139">Hidden state</tspan>
                </text>
                <path d="M345,84.2435802 L345,219.911619" id="Line-4-Copy-9" stroke="#FFFFFF" stroke-width="3" stroke-linecap="square" transform="translate(345.000000, 152.243580) rotate(-90.000000) translate(-345.000000, -152.243580) "></path>
                <path d="M345,123.24358 L345,258.911619" id="Line-4-Copy-10" stroke="#FFFFFF" stroke-width="3" stroke-linecap="square" transform="translate(345.000000, 191.243580) rotate(-90.000000) translate(-345.000000, -191.243580) "></path>
                <path d="M345,169.24358 L345,304.911619" id="Line-4-Copy-11" stroke="#FFFFFF" stroke-width="3" stroke-linecap="square" transform="translate(345.000000, 237.243580) rotate(-90.000000) translate(-345.000000, -237.243580) "></path>
                <path d="M345,209.24358 L345,344.911619" id="Line-4-Copy-12" stroke="#FFFFFF" stroke-width="3" stroke-linecap="square" transform="translate(345.000000, 277.243580) rotate(-90.000000) translate(-345.000000, -277.243580) "></path>
                <polygon id="Fill-1-Copy-6" fill="#FFFFFF" transform="translate(407.618000, 152.500000) scale(-1, -1) translate(-407.618000, -152.500000) " points="411.807 141 399 151.062 399 153.947 411.533 164 416.236 164 401.759 152.375 416.177 141"></polygon>
                <polygon id="Fill-1-Copy-7" fill="#FFFFFF" transform="translate(407.618000, 191.500000) scale(-1, -1) translate(-407.618000, -191.500000) " points="411.807 180 399 190.062 399 192.947 411.533 203 416.236 203 401.759 191.375 416.177 180"></polygon>
                <polygon id="Fill-1-Copy-8" fill="#FFFFFF" transform="translate(407.618000, 237.500000) scale(-1, -1) translate(-407.618000, -237.500000) " points="411.807 226 399 236.062 399 238.947 411.533 249 416.236 249 401.759 237.375 416.177 226"></polygon>
                <polygon id="Fill-1-Copy-10" fill="#FFFFFF" transform="translate(407.618000, 277.500000) scale(-1, -1) translate(-407.618000, -277.500000) " points="411.807 266 399 276.062 399 278.947 411.533 289 416.236 289 401.759 277.375 416.177 266"></polygon>
                <g id="Group-6" transform="translate(32.000000, 0.000000)" fill="#FFFFFF">
                    <path d="M19.5,0 L129.5,0 C140.269553,-1.97833472e-15 149,8.73044738 149,19.5 C149,30.2695526 140.269553,39 129.5,39 L19.5,39 C8.73044738,39 1.31888981e-15,30.2695526 0,19.5 C-1.31888981e-15,8.73044738 8.73044738,1.97833472e-15 19.5,0 Z M27.166,14.06 L23.232,14.06 L23.232,24 L25.038,24 L25.038,20.15 L27.152,20.15 C29.294,20.15 30.638,18.96 30.638,17.084 C30.638,15.25 29.28,14.06 27.166,14.06 Z M26.83,18.778 L25.038,18.778 L25.038,15.446 L26.83,15.446 C28.006,15.446 28.734,16.09 28.734,17.112 C28.734,18.148 28.006,18.778 26.83,18.778 Z M32.066,24 L33.746,24 L33.746,20.29 C33.746,18.932 34.32,18.162 35.328,18.162 C36.182,18.162 36.616,18.722 36.616,19.786 L36.616,24 L38.31,24 L38.31,19.646 C38.31,17.784 37.512,16.804 36,16.804 C34.936,16.804 34.166,17.308 33.746,18.288 L33.746,13.85 L32.066,13.85 L32.066,24 Z M40.606,26.814 C42.104,26.814 43.042,26.184 43.672,24.392 L46.304,17 L44.554,17 L43.168,21.578 C43.056,21.942 42.986,22.194 42.958,22.404 L42.93,22.404 C42.888,22.166 42.832,21.9 42.72,21.578 L41.194,17 L39.346,17 L42.076,23.93 L41.936,24.35 C41.684,25.134 41.264,25.47 40.466,25.47 C40.284,25.47 40.116,25.456 39.822,25.428 L39.822,26.744 C40.116,26.8 40.396,26.814 40.606,26.814 Z M50.028,24.168 C51.848,24.168 52.912,23.328 52.912,21.956 C52.912,20.794 52.338,20.066 50.896,19.884 L49.72,19.716 C48.978,19.632 48.656,19.352 48.656,18.876 C48.656,18.33 49.104,18.05 49.902,18.05 C50.812,18.05 51.442,18.526 51.778,19.24 L52.94,18.61 C52.59,17.518 51.456,16.832 49.944,16.832 C48.166,16.832 47.102,17.658 47.102,18.96 C47.102,20.094 47.774,20.864 49.23,21.046 L50.294,21.186 C51.064,21.284 51.358,21.522 51.358,22.082 C51.358,22.614 50.91,22.936 50.07,22.936 C49.076,22.936 48.376,22.474 48.04,21.578 L46.794,22.138 C47.242,23.454 48.418,24.168 50.028,24.168 Z M54.438,15.838 L56.258,15.838 L56.258,14.088 L54.438,14.088 L54.438,15.838 Z M54.522,24 L56.202,24 L56.202,17 L54.522,17 L54.522,24 Z M61.27,24.168 C62.936,24.168 64.112,23.216 64.364,21.662 L62.782,21.34 C62.628,22.32 62.11,22.838 61.27,22.838 C60.192,22.838 59.562,21.97 59.562,20.458 C59.562,19.016 60.206,18.148 61.242,18.148 C62.068,18.148 62.614,18.666 62.726,19.618 L64.364,19.352 C64.154,17.756 63.02,16.832 61.284,16.832 C59.156,16.832 57.84,18.218 57.84,20.5 C57.84,22.726 59.184,24.168 61.27,24.168 Z M67.752,24.168 C68.886,24.168 69.768,23.65 70.104,22.796 C70.118,23.23 70.16,23.65 70.216,24 L71.896,24 C71.756,23.51 71.686,22.782 71.686,21.83 L71.686,19.744 C71.686,17.714 70.762,16.832 68.69,16.832 C66.884,16.832 65.708,17.756 65.596,19.254 L67.318,19.254 C67.374,18.456 67.864,18.022 68.69,18.022 C69.586,18.022 69.992,18.47 69.992,19.52 L69.992,19.702 L68.508,19.884 C67.402,20.038 66.73,20.22 66.226,20.514 C65.666,20.864 65.372,21.424 65.372,22.096 C65.372,23.342 66.324,24.168 67.752,24.168 Z M68.298,22.978 C67.556,22.978 67.108,22.6 67.108,22.012 C67.108,21.41 67.528,21.074 68.452,20.92 L70.034,20.682 L70.034,21.13 C70.034,22.25 69.334,22.978 68.298,22.978 Z M75.508,13.85 L73.828,13.85 L73.828,24 L75.508,24 L75.508,13.85 Z M83.866,24.168 C85.686,24.168 86.75,23.328 86.75,21.956 C86.75,20.794 86.176,20.066 84.734,19.884 L83.558,19.716 C82.816,19.632 82.494,19.352 82.494,18.876 C82.494,18.33 82.942,18.05 83.74,18.05 C84.65,18.05 85.28,18.526 85.616,19.24 L86.778,18.61 C86.428,17.518 85.294,16.832 83.782,16.832 C82.004,16.832 80.94,17.658 80.94,18.96 C80.94,20.094 81.612,20.864 83.068,21.046 L84.132,21.186 C84.902,21.284 85.196,21.522 85.196,22.082 C85.196,22.614 84.748,22.936 83.908,22.936 C82.914,22.936 82.214,22.474 81.878,21.578 L80.632,22.138 C81.08,23.454 82.256,24.168 83.866,24.168 Z M88.598,26.814 C90.096,26.814 91.034,26.184 91.664,24.392 L94.296,17 L92.546,17 L91.16,21.578 C91.048,21.942 90.978,22.194 90.95,22.404 L90.922,22.404 C90.88,22.166 90.824,21.9 90.712,21.578 L89.186,17 L87.338,17 L90.068,23.93 L89.928,24.35 C89.676,25.134 89.256,25.47 88.458,25.47 C88.276,25.47 88.108,25.456 87.814,25.428 L87.814,26.744 C88.108,26.8 88.388,26.814 88.598,26.814 Z M98.02,24.168 C99.84,24.168 100.904,23.328 100.904,21.956 C100.904,20.794 100.33,20.066 98.888,19.884 L97.712,19.716 C96.97,19.632 96.648,19.352 96.648,18.876 C96.648,18.33 97.096,18.05 97.894,18.05 C98.804,18.05 99.434,18.526 99.77,19.24 L100.932,18.61 C100.582,17.518 99.448,16.832 97.936,16.832 C96.158,16.832 95.094,17.658 95.094,18.96 C95.094,20.094 95.766,20.864 97.222,21.046 L98.286,21.186 C99.056,21.284 99.35,21.522 99.35,22.082 C99.35,22.614 98.902,22.936 98.062,22.936 C97.068,22.936 96.368,22.474 96.032,21.578 L94.786,22.138 C95.234,23.454 96.41,24.168 98.02,24.168 Z M101.548,18.218 L102.808,18.218 L102.808,21.83 C102.808,23.244 103.368,24.126 105.048,24.126 C105.482,24.126 105.79,24.084 106.196,24 L106.196,22.586 C105.972,22.642 105.79,22.67 105.51,22.67 C104.81,22.67 104.488,22.32 104.488,21.564 L104.488,18.218 L106.196,18.218 L106.196,17 L104.488,17 L104.488,14.564 L102.808,15.236 L102.808,17 L101.548,17 L101.548,18.218 Z M113.686,20.15 C113.686,18.008 112.524,16.832 110.494,16.832 C108.408,16.832 107.148,18.26 107.148,20.57 C107.148,22.866 108.436,24.168 110.578,24.168 C112.006,24.168 113.112,23.496 113.63,22.278 L112.342,21.69 C112.02,22.446 111.432,22.852 110.634,22.852 C109.528,22.852 108.786,22.096 108.772,20.92 L113.686,20.92 L113.686,20.15 Z M112.034,19.814 L108.772,19.814 C108.8,18.652 109.402,17.952 110.466,17.952 C111.46,17.952 112.034,18.554 112.034,19.702 L112.034,19.814 Z M115.408,17 L115.408,24 L117.088,24 L117.088,19.954 C117.088,18.834 117.578,18.176 118.418,18.176 C119.16,18.176 119.552,18.68 119.552,19.646 L119.552,24 L121.232,24 L121.232,19.912 C121.232,18.792 121.708,18.176 122.562,18.176 C123.332,18.176 123.71,18.666 123.71,19.688 L123.71,24 L125.39,24 L125.39,19.422 C125.39,17.77 124.592,16.818 123.248,16.818 C122.268,16.818 121.54,17.28 121.064,18.246 C120.728,17.294 120.056,16.818 119.076,16.818 C118.096,16.818 117.424,17.28 117.004,18.246 L117.004,17 L115.408,17 Z" id="Combined-Shape"></path>
                </g>
                <g id="Group-5" transform="translate(481.000000, 0.000000)" fill="#FFFFFF">
                    <path d="M19.5,0 L102.5,0 C113.269553,-1.97833472e-15 122,8.73044738 122,19.5 C122,30.2695526 113.269553,39 102.5,39 L19.5,39 C8.73044738,39 1.31888981e-15,30.2695526 0,19.5 C-1.31888981e-15,8.73044738 8.73044738,1.97833472e-15 19.5,0 Z M25.232,24 L28.788,24 C31.742,24 33.632,21.928 33.632,18.988 C33.632,16.048 31.728,14.06 28.816,14.06 L25.232,14.06 L25.232,24 Z M27.038,22.586 L27.038,15.474 L28.76,15.474 C30.706,15.474 31.742,16.972 31.742,18.988 C31.742,20.962 30.664,22.586 28.732,22.586 L27.038,22.586 Z M35.186,15.838 L37.006,15.838 L37.006,14.088 L35.186,14.088 L35.186,15.838 Z M35.27,24 L36.95,24 L36.95,17 L35.27,17 L35.27,24 Z M44.958,17.056 C45.154,17.056 45.336,17.084 45.518,17.126 L45.518,15.866 C45.392,15.838 45.266,15.824 45.14,15.824 C44.132,15.824 43.516,16.342 43.292,17.112 C42.886,16.93 42.382,16.832 41.822,16.832 C40.03,16.832 38.938,17.798 38.938,19.184 C38.938,19.912 39.246,20.542 39.792,20.976 C39.12,21.242 38.7,21.732 38.7,22.46 C38.7,23.02 38.966,23.468 39.582,23.72 C38.826,23.972 38.42,24.476 38.42,25.092 C38.42,26.086 39.302,26.898 41.696,26.898 C44.23,26.898 45.434,25.96 45.434,24.518 C45.434,23.216 44.594,22.502 42.956,22.502 L41.136,22.502 C40.352,22.502 40.058,22.236 40.058,21.858 C40.058,21.606 40.198,21.438 40.408,21.326 C40.814,21.494 41.29,21.578 41.822,21.578 C43.6,21.578 44.692,20.57 44.692,19.184 C44.692,18.498 44.426,17.924 43.95,17.504 C44.16,17.21 44.496,17.056 44.958,17.056 Z M41.822,20.556 C41.038,20.556 40.534,19.982 40.534,19.184 C40.534,18.4 41.038,17.854 41.822,17.854 C42.606,17.854 43.11,18.4 43.11,19.198 C43.11,19.982 42.606,20.556 41.822,20.556 Z M42.704,23.944 C43.516,23.944 43.922,24.238 43.922,24.798 C43.922,25.372 43.404,25.806 41.822,25.806 C40.604,25.806 39.806,25.526 39.806,24.784 C39.806,24.434 39.974,24.112 40.324,23.902 C40.492,23.916 40.688,23.93 40.884,23.93 L42.704,23.944 Z M46.75,15.838 L48.57,15.838 L48.57,14.088 L46.75,14.088 L46.75,15.838 Z M46.834,24 L48.514,24 L48.514,17 L46.834,17 L46.834,24 Z M49.774,18.218 L51.034,18.218 L51.034,21.83 C51.034,23.244 51.594,24.126 53.274,24.126 C53.708,24.126 54.016,24.084 54.422,24 L54.422,22.586 C54.198,22.642 54.016,22.67 53.736,22.67 C53.036,22.67 52.714,22.32 52.714,21.564 L52.714,18.218 L54.422,18.218 L54.422,17 L52.714,17 L52.714,14.564 L51.034,15.236 L51.034,17 L49.774,17 L49.774,18.218 Z M57.726,24.168 C58.86,24.168 59.742,23.65 60.078,22.796 C60.092,23.23 60.134,23.65 60.19,24 L61.87,24 C61.73,23.51 61.66,22.782 61.66,21.83 L61.66,19.744 C61.66,17.714 60.736,16.832 58.664,16.832 C56.858,16.832 55.682,17.756 55.57,19.254 L57.292,19.254 C57.348,18.456 57.838,18.022 58.664,18.022 C59.56,18.022 59.966,18.47 59.966,19.52 L59.966,19.702 L58.482,19.884 C57.376,20.038 56.704,20.22 56.2,20.514 C55.64,20.864 55.346,21.424 55.346,22.096 C55.346,23.342 56.298,24.168 57.726,24.168 Z M58.272,22.978 C57.53,22.978 57.082,22.6 57.082,22.012 C57.082,21.41 57.502,21.074 58.426,20.92 L60.008,20.682 L60.008,21.13 C60.008,22.25 59.308,22.978 58.272,22.978 Z M65.482,13.85 L63.802,13.85 L63.802,24 L65.482,24 L65.482,13.85 Z M78.166,14.06 L70.34,14.06 L70.34,15.53 L73.35,15.53 L73.35,24 L75.156,24 L75.156,15.53 L78.166,15.53 L78.166,14.06 Z M80.504,24 L82.212,24 L83.43,19.38 C83.472,19.17 83.528,18.876 83.556,18.694 L83.584,18.694 C83.598,18.876 83.654,19.17 83.71,19.38 L84.914,24 L86.622,24 L88.554,17 L86.902,17 L85.81,21.662 C85.768,21.886 85.726,22.152 85.684,22.418 L85.656,22.418 C85.628,22.152 85.558,21.886 85.516,21.662 L84.354,17 L82.772,17 L81.624,21.662 C81.568,21.886 81.512,22.152 81.47,22.418 L81.442,22.418 C81.414,22.152 81.358,21.886 81.316,21.662 L80.238,17 L78.586,17 L80.504,24 Z M89.87,15.838 L91.69,15.838 L91.69,14.088 L89.87,14.088 L89.87,15.838 Z M89.954,24 L91.634,24 L91.634,17 L89.954,17 L89.954,24 Z M93.86,24 L95.54,24 L95.54,20.29 C95.54,18.96 96.128,18.176 97.108,18.176 C97.99,18.176 98.41,18.722 98.41,19.828 L98.41,24 L100.104,24 L100.104,19.66 C100.104,17.784 99.306,16.818 97.78,16.818 C96.702,16.818 95.932,17.322 95.456,18.358 L95.456,17 L93.86,17 L93.86,24 Z" id="Combined-Shape"></path>
                </g>
                <path d="M287,152.600477 C264.669051,149.614551 253.503577,157.882882 253.503577,177.40547 C253.503577,206.689352 240.638554,214.006318 213,214.006318" id="Path-4" stroke="#FFFFFF" stroke-width="3"></path>
                <path d="M277,191.220414 C267.946913,190.112732 263.420369,193.180016 263.420369,200.422266 C263.420369,211.285641 258.204819,214 247,214" id="Path-4-Copy-2" stroke="#FFFFFF" stroke-width="3"></path>
                <path d="M278,214.220414 C268.946913,213.112732 264.420369,216.180016 264.420369,223.422266 C264.420369,234.285641 259.204819,237 248,237" id="Path-4-Copy-3" stroke="#FFFFFF" stroke-width="3" transform="translate(263.000000, 225.500000) scale(-1, 1) rotate(180.000000) translate(-263.000000, -225.500000) "></path>
                <path d="M287,214.603742 C264.669051,211.569656 253.503577,219.971347 253.503577,239.808815 C253.503577,269.565018 240.638554,277 213,277" id="Path-4-Copy" stroke="#FFFFFF" stroke-width="3" transform="translate(250.000000, 245.500000) scale(-1, 1) rotate(180.000000) translate(-250.000000, -245.500000) "></path>
                <path d="M450,406.811436 L450,516" id="Line-4-Copy-8" stroke="#FFFFFF" stroke-width="3" stroke-linecap="square"></path>
                <text id="API-Copy" font-family="GTAmerica-ExpandedBold, GT America" font-size="14" font-style="expanded" font-weight="bold" fill="#FFFFFF">
                    <tspan x="729.444" y="203">API</tspan>
                </text>
                <text id="Time" font-family="GTAmerica-Medium, GT America" font-size="12" font-weight="400" fill="#FFFFFF">
                    <tspan x="477.832" y="267">Time</tspan>
                </text>
                <text id="States" font-family="GTAmerica-Medium, GT America" font-size="12" font-weight="400" fill="#FFFFFF">
                    <tspan x="577.384" y="267">States</tspan>
                </text>
                <text id="Interacting-systems" font-family="GTAmerica-Medium, GT America" font-size="12" font-weight="400" fill="#FFFFFF">
                    <tspan x="513.96" y="143">Interacting </tspan>
                    <tspan x="521.748" y="157">systems</tspan>
                </text>
                <path d="M542,314 C601.094468,314 649,266.094468 649,207 C649,147.905532 601.094468,100 542,100 C482.905532,100 435,147.905532 435,207 C435,266.094468 482.905532,314 542,314 Z" id="Oval" stroke="#FFFFFF" stroke-linecap="round" stroke-linejoin="round" stroke-dasharray="5"></path>
                <path d="M107,314 C166.094468,314 214,266.094468 214,207 C214,147.905532 166.094468,100 107,100 C47.9055318,100 0,147.905532 0,207 C0,266.094468 47.9055318,314 107,314 Z" id="Oval-Copy-2" stroke="#FFFFFF" stroke-linecap="round" stroke-linejoin="round" stroke-dasharray="5"></path>
                <text id="•-predictions-/forec" font-family="GTAmerica-Medium, GT America" font-size="12" font-weight="400" line-spacing="16" fill="#FFFFFF">
                    <tspan x="510" y="627">•  predictions /forecasts</tspan>
                    <tspan x="510" y="643">•  root causes and drivers</tspan>
                    <tspan x="510" y="659">•  planned resolution tasks</tspan>
                    <tspan x="510" y="675">•  anomalies</tspan>
                    <tspan x="510" y="691">•  reports</tspan>
                    <tspan x="510" y="707">•  alerts</tspan>
                </text>
                <text id="Measurement-of-inter" font-family="GTAmerica-Medium, GT America" font-size="12" font-weight="400" line-spacing="16" fill="#FFFFFF">
                    <tspan x="251.66" y="425">Measurement </tspan>
                    <tspan x="252.488" y="441">of interacting </tspan>
                    <tspan x="267.248" y="457">systems</tspan>
                </text>
                <text id="Noise" font-family="GTAmerica-Medium, GT America" font-size="12" font-weight="400" line-spacing="16" fill="#FFFFFF">
                    <tspan x="365.13" y="425">Noise</tspan>
                </text>
                <path d="M649,200.414427 L707,200.414427" id="Line-5" stroke="#FFFFFF" stroke-width="3" stroke-linecap="square"></path>
                <g id="Group-2" transform="translate(421.000000, 516.000000)" fill="#FFFFFF">
                    <path d="M28,56 C12.536027,56 0,43.463973 0,28 C0,12.536027 12.536027,0 28,0 C43.463973,0 56,12.536027 56,28 C56,43.463973 43.463973,56 28,56 Z M19,18 L31.7813787,28.0877262 L19,38 L26.2089255,38 L37,29.6667984 L37,26.3335968 L26.4300704,18 L19,18 Z" id="Combined-Shape"></path>
                </g>
                <g id="full-spectrum-copy" transform="translate(509.000000, 476.000000)" fill="#FFFFFF" fill-rule="nonzero">
                    <path d="M119.897059,75.8970588 L119.102941,75.8970588 L119.102941,75.1029412 C119.102941,74.4852941 118.617647,74 118,74 C117.382353,74 116.897059,74.4852941 116.897059,75.1029412 L116.897059,75.8970588 L116.102941,75.8970588 C115.485294,75.8970588 115,76.3823529 115,77 C115,77.6176471 115.485294,78.1029412 116.102941,78.1029412 L116.897059,78.1029412 L116.897059,78.8970588 C116.897059,79.5147059 117.382353,80 118,80 C118.617647,80 119.102941,79.5147059 119.102941,78.8970588 L119.102941,78.1029412 L119.897059,78.1029412 C120.514706,78.1029412 121,77.6176471 121,77 C121,76.3823529 120.514706,75.8970588 119.897059,75.8970588 Z" id="Path"></path>
                    <path d="M22.0425532,12.5957447 L21.3510638,12.5957447 L21.3510638,11.9042553 C21.3510638,11.4255319 20.9255319,11 20.4468085,11 C19.9680851,11 19.5957447,11.4255319 19.5425532,11.9042553 L19.5425532,12.5957447 L18.9042553,12.5957447 C18.4255319,12.5957447 18,13.0212766 18,13.5 C18,13.9787234 18.4255319,14.3510638 18.9042553,14.4042553 L19.5957447,14.4042553 L19.5957447,15.0957447 C19.5957447,15.5744681 20.0212766,16 20.5,16 C20.9787234,16 21.3510638,15.5744681 21.4042553,15.0957447 L21.4042553,14.4042553 L22.0957447,14.4042553 C22.5744681,14.4042553 23,13.9787234 23,13.5 C22.9468085,13.0212766 22.5212766,12.6489362 22.0425532,12.5957447 Z" id="Path"></path>
                    <path d="M55,14.7860697 C55,14.7064677 54.9589744,14.6666667 54.9589744,14.5870647 C54.9179487,14.5472637 54.9179487,14.4676617 54.8769231,14.4278607 C54.8358974,14.3880597 54.7948718,14.3084577 54.7538462,14.2686567 C54.3435897,13.9104478 53.7282051,13.9104478 53.3179487,14.2686567 C53.2769231,14.3084577 53.2358974,14.3482587 53.1948718,14.4278607 C53.1128205,14.5472637 53.0717949,14.6666667 53.0307692,14.7860697 C52.9897436,14.9054726 52.9897436,15.0646766 53.0307692,15.1840796 C53.0307692,15.2636816 53.0717949,15.3034826 53.0717949,15.3830846 C53.1128205,15.4626866 53.1128205,15.5024876 53.1538462,15.5422886 C53.1948718,15.5820896 53.2358974,15.6616915 53.2769231,15.7014925 C53.6871795,16.0995025 54.3025641,16.0995025 54.7128205,15.7014925 C54.7128205,15.7014925 54.7128205,15.7014925 54.7128205,15.7014925 C54.7538462,15.6616915 54.7948718,15.6218905 54.8358974,15.5422886 C54.8769231,15.5024876 54.9179487,15.4228856 54.9179487,15.3830846 C54.9589744,15.3432836 54.9589744,15.2636816 54.9589744,15.1840796 C55,15.0646766 55,14.9452736 55,14.7860697 Z" id="Path"></path>
                    <path d="M112.97341,84.7860697 C112.97341,84.7064677 112.93293,84.6666667 112.93293,84.5870647 C112.89245,84.5472637 112.89245,84.4676617 112.85197,84.4278607 C112.81149,84.3880597 112.771009,84.3084577 112.730529,84.2686567 C112.325727,83.9104478 111.718524,83.9104478 111.313722,84.2686567 C111.273241,84.3084577 111.232761,84.3482587 111.192281,84.4278607 C111.111321,84.5472637 111.07084,84.6666667 111.03036,84.7860697 C110.98988,84.9054726 110.98988,85.0646766 111.03036,85.1840796 C111.03036,85.2636816 111.07084,85.3034826 111.07084,85.3830846 C111.111321,85.4626866 111.111321,85.5024876 111.151801,85.5422886 C111.192281,85.5820896 111.232761,85.6616915 111.273241,85.7014925 C111.678044,86.0995025 112.285247,86.0995025 112.690049,85.7014925 C112.690049,85.7014925 112.690049,85.7014925 112.690049,85.7014925 C112.730529,85.6616915 112.771009,85.6218905 112.81149,85.5422886 C112.85197,85.5024876 112.89245,85.4228856 112.89245,85.3830846 C112.93293,85.3432836 112.93293,85.2636816 112.93293,85.1840796 C113.013891,85.0646766 113.013891,84.9054726 112.97341,84.7860697 Z" id="Path"></path>
                    <path d="M49.8928571,4.39285714 C47.6964286,3.96428571 46.0357143,2.25 45.6071429,0.107142857 C45.6071429,0.0535714286 45.5535714,0 45.5,0 C45.4464286,0 45.4464286,0.0535714286 45.3928571,0.107142857 C44.9642857,2.30357143 43.25,3.96428571 41.1071429,4.39285714 C41.0535714,4.39285714 41,4.44642857 41,4.5 C41,4.55357143 41.0535714,4.55357143 41.1071429,4.60714286 C43.3035714,5.03571429 44.9642857,6.75 45.3928571,8.89285714 C45.3928571,8.94642857 45.4464286,9 45.5,9 C45.5535714,9 45.5535714,8.94642857 45.6071429,8.89285714 C46.0357143,6.69642857 47.75,5.03571429 49.8928571,4.60714286 C49.9464286,4.60714286 50,4.55357143 50,4.5 C49.9464286,4.44642857 49.8928571,4.39285714 49.8928571,4.39285714 Z" id="Path"></path>
                    <path d="M5,108 C4.44,108 4,107.456602 4,106.765005 L4,2.23499538 C4,1.54339797 4.44,1 5,1 C5.56,1 6,1.54339797 6,2.23499538 L6,106.715605 C6,107.407202 5.56,108 5,108 Z" id="Path"></path>
                    <path d="M125.769508,108 L5.2304922,108 C4.54141657,108 4,107.56 4,107 C4,106.44 4.54141657,106 5.2304922,106 L125.769508,106 C126.458583,106 127,106.44 127,107 C127,107.56 126.458583,108 125.769508,108 Z" id="Path"></path>
                    <path d="M3.87387387,16 L1.12612613,16 C0.495495495,16 0,15.56 0,15 C0,14.44 0.495495495,14 1.12612613,14 L3.87387387,14 C4.5045045,14 5,14.44 5,15 C5,15.56 4.5045045,16 3.87387387,16 Z" id="Path"></path>
                    <path d="M3.87387387,34 L1.12612613,34 C0.495495495,34 0,33.56 0,33 C0,32.44 0.495495495,32 1.12612613,32 L3.87387387,32 C4.5045045,32 5,32.44 5,33 C5,33.56 4.5045045,34 3.87387387,34 Z" id="Path"></path>
                    <path d="M3.87387387,53 L1.12612613,53 C0.495495495,53 0,52.56 0,52 C0,51.44 0.495495495,51 1.12612613,51 L3.87387387,51 C4.5045045,51 5,51.44 5,52 C5,52.56 4.5045045,53 3.87387387,53 Z" id="Path"></path>
                    <path d="M3.87387387,72 L1.12612613,72 C0.495495495,72 0,71.56 0,71 C0,70.44 0.495495495,70 1.12612613,70 L3.87387387,70 C4.5045045,70 5,70.44 5,71 C5,71.56 4.5045045,72 3.87387387,72 Z" id="Path"></path>
                    <path d="M3.87387387,91 L1.12612613,91 C0.495495495,91 0,90.56 0,90 C0,89.44 0.495495495,89 1.12612613,89 L3.87387387,89 C4.5045045,89 5,89.44 5,90 C5,90.56 4.5045045,91 3.87387387,91 Z" id="Path"></path>
                    <path d="M23,111 C22.44,111 22,110.490741 22,109.842593 L22,107.157407 C22,106.509259 22.44,106 23,106 C23.56,106 24,106.509259 24,107.157407 L24,109.842593 C24,110.444444 23.56,111 23,111 Z" id="Path"></path>
                    <path d="M42,111 C41.44,111 41,110.490741 41,109.842593 L41,107.157407 C41,106.509259 41.44,106 42,106 C42.56,106 43,106.509259 43,107.157407 L43,109.842593 C43,110.444444 42.56,111 42,111 Z" id="Path"></path>
                    <path d="M61,111 C60.44,111 60,110.490741 60,109.842593 L60,107.157407 C60,106.509259 60.44,106 61,106 C61.56,106 62,106.509259 62,107.157407 L62,109.842593 C62,110.444444 61.52,111 61,111 Z" id="Path"></path>
                    <path d="M82,111 C81.44,111 81,110.490741 81,109.842593 L81,107.157407 C81,106.509259 81.44,106 82,106 C82.56,106 83,106.509259 83,107.157407 L83,109.842593 C83,110.444444 82.56,111 82,111 Z" id="Path"></path>
                    <path d="M101,111 C100.44,111 100,110.490741 100,109.842593 L100,107.157407 C100,106.509259 100.44,106 101,106 C101.56,106 102,106.509259 102,107.157407 L102,109.842593 C102,110.444444 101.56,111 101,111 Z" id="Path"></path>
                    <path d="M119.814189,108 L5.23521959,108 C4.54349662,108 4,107.456578 4,106.764951 C4,106.419137 4.14822635,106.073323 4.39527027,105.875715 C4.54349662,105.727509 20.2060811,90.2152886 28.2597128,21.9417577 C29.1490709,14.5314613 32.7559122,13 35.6216216,13 C38.4873311,13 42.0941723,14.5314613 42.9835304,21.8923557 C48.7643581,69.5158606 56.0274493,82.4591784 61.1165541,84.9292772 C64.7233953,86.7077483 68.0831926,86.9547582 71.0971284,85.7691108 C75.7909628,83.9412376 79.8424831,78.5564223 83.1528716,69.8122725 C84.8821791,65.3166927 87.5502534,62.8465939 90.5641892,62.9947998 C93.9239865,63.1924077 96.7896959,66.650546 98.2719595,72.3317733 C104.102196,94.3650546 111.315878,105.529901 119.76478,105.529901 C120.456503,105.529901 121,106.073323 121,106.764951 C121,107.456578 120.505912,108 119.814189,108 L119.814189,108 Z M7.90329392,105.529901 L112.353463,105.529901 C105.930321,100.984919 100.495355,90.2152886 95.9497466,72.973999 L95.9497466,72.973999 C94.7639358,68.4784191 92.6887669,65.6131045 90.4653716,65.5143006 C88.6372466,65.4154966 86.7597128,67.3915757 85.4750845,70.75091 C81.8682432,80.1372855 77.3226351,85.9667187 71.9864865,88.0910036 C68.3302365,89.5236609 64.2787162,89.2272491 59.980152,87.1523661 C51.6794764,83.150806 45.3057432,61.9079563 40.4636824,22.1887676 C39.6237331,15.4700988 36.5603885,15.4700988 35.5722128,15.4700988 C34.5840372,15.4700988 31.4712838,15.4700988 30.6313345,22.2381695 C24.0599662,78.7540302 12.3994932,99.4040562 7.90329392,105.529901 Z" id="Shape"></path>
                    <path d="M81.7661575,108 L42.2338425,108 C41.5428907,108 41,107.456875 41,106.765625 L41,30.234375 C41,29.543125 41.5428907,29 42.2338425,29 C42.8754407,29 43.3689777,29.444375 43.4676851,30.08625 C49.0940071,71.314375 55.8554642,82.670625 60.4947121,84.941875 C63.9494712,86.620625 67.1574618,86.96625 70.0693302,85.929375 C74.06698,84.546875 77.6204465,80.596875 80.680376,74.2275 C80.9764982,73.635 81.7168038,73.33875 82.3090482,73.635 C82.7532315,73.8325 83,74.276875 83,74.770625 L83,106.765625 C83,107.4075 82.4571093,108 81.7661575,108 C81.7661575,108 81.7661575,108 81.7661575,108 Z M43.4676851,105.53125 L80.5816686,105.53125 L80.5816686,79.56 C77.7191539,84.053125 74.5111633,87.015625 70.9083431,88.25 C67.3548766,89.484375 63.5052879,89.089375 59.4582844,87.114375 C53.0423032,84.00375 47.8108108,70.57375 43.5170388,46.231875 L43.5170388,105.53125 L43.4676851,105.53125 Z" id="Shape"></path>
                </g>
                <path d="M450.017616,409 C449.578753,390.333333 457.339638,381 473.30027,381 C489.260903,381 504.494146,381 519,381" id="Path-7" stroke="#FFFFFF" stroke-width="3"></path>
                <path d="M506.5,380.496094 C530.5,382.832031 542.5,374.333333 542.5,355 C542.5,335.666667 542.5,322 542.5,314" id="Path-8" stroke="#FFFFFF" stroke-width="3"></path>
                <path d="M509.097656,380.496094 L482,380.496094" id="Path-9" stroke="#FFFFFF" stroke-width="3"></path>
                <g id="manufacture-2" transform="translate(54.000000, 156.000000)" fill="#FFFFFF" fill-rule="nonzero" stroke="#000000">
                    <g id="manufacture">
                        <path d="M101,79.85 C100.997265,77.7109042 99.6493354,75.80495 97.6333333,75.0895333 L97.6333333,31.0333333 C97.6333333,30.1037125 96.8796208,29.35 95.95,29.35 L92.5833333,29.35 L92.5833333,7.46666667 C92.579125,3.74965625 89.5670104,0.737541667 85.85,0.733333333 L42.0833333,0.733333333 C38.3663229,0.737541667 35.3542083,3.74965625 35.35,7.46666667 L35.35,39.7395333 C32.7218958,40.66705 31.3434563,43.5495479 32.2709729,46.1774417 C32.5807063,47.0548792 33.1269479,47.8296333 33.8493083,48.4160646 L22.4581917,58.3830812 C22.0929083,58.7027042 21.8833333,59.1645687 21.8833333,59.65 L21.8833333,71.4333333 C21.8833333,71.6946708 21.9441438,71.9524312 22.0611354,72.1862042 L23.7444688,75.5528708 C24.0295833,76.1231 24.6124375,76.4833333 25.25,76.4833333 L30.3,76.4833333 C31.2296208,76.4833333 31.9833333,75.7296208 31.9833333,74.8 L35.35,74.8 L35.35,71.4333333 L31.9833333,71.4333333 L31.9833333,68.0666667 L35.35,68.0666667 L35.35,64.7 L31.9833333,64.7 L31.9833333,63.7137771 L37.7306542,57.9666667 L46.4360125,57.9666667 L52.1833333,63.7137771 L52.1833333,64.7 L48.8166667,64.7 L48.8166667,68.0666667 L52.1833333,68.0666667 L52.1833333,71.4333333 L48.8166667,71.4333333 L48.8166667,74.8 L52.1833333,74.8 C52.1833333,75.7296208 52.9370458,76.4833333 53.8666667,76.4833333 L58.9166667,76.4833333 C59.5542292,76.4833333 60.1370833,76.1231 60.4221979,75.5528708 L62.1055313,72.1862042 C62.2225229,71.9524312 62.2833333,71.6946708 62.2833333,71.4333333 L62.2833333,59.65 C62.2833333,59.1645687 62.0737583,58.7027042 61.708475,58.3830812 L50.3173583,48.4160646 C52.4812833,46.6597167 52.8116375,43.4817937 51.0550792,41.3178687 C50.4686479,40.5955083 49.6938938,40.0492667 48.8166667,39.7395333 L48.8166667,14.2 L79.1166667,14.2 L79.1166667,29.35 L75.75,29.35 C74.8203792,29.35 74.0666667,30.1037125 74.0666667,31.0333333 L74.0666667,44.5 L77.4333333,44.5 L77.4333333,32.7166667 L79.3298188,32.7166667 C80.2581771,36.3177375 83.9297375,38.4843979 87.5308083,37.5560396 C89.9045188,36.9441479 91.7582896,35.0903771 92.3701813,32.7166667 L94.2666667,32.7166667 L94.2666667,74.8 L82.4833333,74.8 L82.4833333,57.9666667 L85.85,57.9666667 C86.7796208,57.9666667 87.5333333,57.2129542 87.5333333,56.2833333 L87.5333333,49.55 C87.5333333,48.6203792 86.7796208,47.8666667 85.85,47.8666667 L57.2333333,47.8666667 L57.2333333,51.2333333 L84.1666667,51.2333333 L84.1666667,54.6 L63.9666667,54.6 L63.9666667,57.9666667 L79.1166667,57.9666667 L79.1166667,91.6333333 L26.9333333,91.6333333 L26.9333333,83.2166667 C26.9333333,82.2870458 26.1796208,81.5333333 25.25,81.5333333 L15.15,81.5333333 C14.2203792,81.5333333 13.4666667,82.2870458 13.4666667,83.2166667 L13.4666667,91.6333333 L8.41666667,91.6333333 L8.41666667,57.9666667 L20.2,57.9666667 L20.2,54.6 L3.36666667,54.6 L3.36666667,51.2333333 L26.9333333,51.2333333 L26.9333333,47.8666667 L1.68333333,47.8666667 C0.7537125,47.8666667 0,48.6203792 0,49.55 L0,56.2833333 C0,57.2129542 0.7537125,57.9666667 1.68333333,57.9666667 L5.05,57.9666667 L5.05,93.3166667 C5.05,94.2462875 5.8037125,95 6.73333333,95 L95.95,95 C96.8796208,95 97.6333333,94.2462875 97.6333333,93.3166667 L97.6333333,84.6104667 C99.6493354,83.89505 100.997265,81.9890958 101,79.85 Z M89.2166667,7.46666667 C89.2166667,9.32611875 87.7094521,10.8333333 85.85,10.8333333 C83.9905479,10.8333333 82.4833333,9.32611875 82.4833333,7.46666667 C82.4833333,5.60721458 83.9905479,4.1 85.85,4.1 C87.7084,4.10210417 89.2145625,5.60826667 89.2166667,7.46666667 Z M42.0833333,4.1 C43.9427854,4.1 45.45,5.60721458 45.45,7.46666667 C45.45,9.32611875 43.9427854,10.8333333 42.0833333,10.8333333 C40.2238813,10.8333333 38.7166667,9.32611875 38.7166667,7.46666667 C38.7187708,5.60826667 40.2249333,4.10210417 42.0833333,4.1 Z M38.7166667,39.45 L38.7166667,13.2952083 C40.7985292,14.503 43.3681375,14.503 45.45,13.2952083 L45.45,39.45 L38.7166667,39.45 Z M37.0333333,42.8166667 L47.1333333,42.8166667 C48.0629542,42.8166667 48.8166667,43.5703792 48.8166667,44.5 C48.8166667,45.4296208 48.0629542,46.1833333 47.1333333,46.1833333 L37.0333333,46.1833333 C36.1037125,46.1833333 35.35,45.4296208 35.35,44.5 C35.35,43.5703792 36.1037125,42.8166667 37.0333333,42.8166667 Z M29.1096729,61.8263396 C28.7940479,62.1419646 28.6166667,62.5701625 28.6166667,63.0166667 L28.6166667,73.1166667 L26.2903,73.1166667 L25.25,71.0358562 L25.25,60.4138125 L35.35,51.5763125 L35.35,55.5860125 L29.1096729,61.8263396 Z M45.45,54.6 L38.7166667,54.6 L38.7166667,49.55 L45.45,49.55 L45.45,54.6 Z M58.9166667,71.0358562 L57.8763667,73.1166667 L55.55,73.1166667 L55.55,63.0166667 C55.55,62.5701625 55.3726188,62.1419646 55.0569938,61.8263396 L48.8166667,55.5860125 L48.8166667,51.5763125 L58.9166667,60.4138125 L58.9166667,71.0358562 Z M48.8166667,7.46666667 C48.8179292,6.284125 48.5056708,5.122625 47.911875,4.1 L80.0235625,4.1 C78.8157708,6.1818625 78.8157708,8.75147083 80.0235625,10.8333333 L48.8166667,10.8333333 L48.8166667,7.46666667 Z M85.85,14.2 C87.0325417,14.2008417 88.1942521,13.8883729 89.2166667,13.2941562 L89.2166667,25.2058437 C87.1348042,23.9980521 84.5651958,23.9980521 82.4833333,25.2058437 L82.4833333,14.2 L85.85,14.2 Z M85.85,34.4 C83.9905479,34.4 82.4833333,32.8927854 82.4833333,31.0333333 C82.4833333,29.1738812 83.9905479,27.6666667 85.85,27.6666667 C87.7094521,27.6666667 89.2166667,29.1738812 89.2166667,31.0333333 C89.2145625,32.8917333 87.7084,34.3978958 85.85,34.4 Z M16.8333333,84.9 L23.5666667,84.9 L23.5666667,91.6333333 L16.8333333,91.6333333 L16.8333333,84.9 Z M82.4833333,91.6333333 L82.4833333,84.9 L94.2666667,84.9 L94.2666667,91.6333333 L82.4833333,91.6333333 Z M95.95,81.5333333 L82.4833333,81.5333333 L82.4833333,78.1666667 L95.95,78.1666667 C96.8796208,78.1666667 97.6333333,78.9203792 97.6333333,79.85 C97.6333333,80.7796208 96.8796208,81.5333333 95.95,81.5333333 Z" id="Shape"></path>
                    </g>
                </g>
                <g id="3d-cube" transform="translate(503.000000, 172.000000)" fill="#FFFFFF" fill-rule="nonzero" stroke="#000000">
                    <path d="M77.9808017,18.3691204 C77.9779362,18.3473333 77.9742112,18.3258292 77.9707727,18.3043251 C77.9578783,18.2242505 77.9409723,18.1455907 77.919195,18.0686286 C77.9160431,18.0567447 77.9134642,18.0451438 77.9100257,18.0332599 C77.8830907,17.944414 77.8504249,17.8578316 77.8123147,17.7740786 C77.8060108,17.7599312 77.7985607,17.7463496 77.7919702,17.7322022 C77.7572986,17.6597672 77.7186153,17.5895959 77.6762071,17.5219711 C77.6678973,17.5083895 77.6598741,17.494525 77.6512779,17.4812264 C77.601706,17.405962 77.5475495,17.3340929 77.4888083,17.2659022 C77.4773466,17.2526036 77.4650253,17.2401539 77.4529905,17.2268553 C77.4014129,17.1699825 77.3469698,17.1159393 77.2896613,17.0647255 C77.2750477,17.0517098 77.2610071,17.0381283 77.2461069,17.0256785 C77.1764771,16.9668251 77.1031222,16.912216 77.0263288,16.8624169 C77.0142941,16.8547773 77.0019727,16.8479865 76.989938,16.8406299 C76.9168696,16.795358 76.8409359,16.7546134 76.7624233,16.7181129 C76.7544001,16.7144346 76.7472365,16.7093415 76.7392133,16.7056632 L39.8878517,0.189929522 C39.3236497,-0.0633098408 38.6757772,-0.0633098408 38.1115752,0.189929522 L12.6488423,11.6021119 C11.5680042,12.0865206 11.0897649,13.344229 11.5803256,14.4115126 C12.0705996,15.4787963 13.3448538,15.9524529 14.4254053,15.4666295 L38.9998567,4.45255635 L70.5817032,18.6070805 L38.9998567,32.3122817 L3.01328014,16.69576 C3.01070126,16.6946282 3.00812238,16.6940623 3.00554349,16.6929305 C2.95281969,16.6702946 2.89837663,16.6507711 2.84364702,16.6320964 C2.82989299,16.6272863 2.81613895,16.6216273 2.80238491,16.6171001 C2.75739775,16.6029527 2.71097788,16.5919177 2.66484455,16.5805997 C2.64048844,16.5746578 2.61613234,16.5673011 2.59148969,16.562208 C2.56197582,16.5559832 2.53160232,16.5525878 2.50151537,16.5474947 C2.45968017,16.5407039 2.41784498,16.5330643 2.37600979,16.5285371 C2.3565249,16.5265565 2.33618039,16.5262735 2.31640896,16.5248588 C2.2639717,16.5208975 2.21182098,16.5175021 2.15967026,16.5172191 C2.1559452,16.5172191 2.1525067,16.5166533 2.14878164,16.5166533 C2.12843713,16.5166533 2.1086657,16.5191998 2.08860773,16.5197657 C2.04218786,16.5208975 1.99576799,16.5223122 1.9499212,16.5265565 C1.9141034,16.5296689 1.87914522,16.5353279 1.8439005,16.540421 C1.81152121,16.5452311 1.77885537,16.5489094 1.74704916,16.5551343 C1.70320817,16.5633398 1.66051335,16.5740919 1.61753199,16.584561 C1.59432205,16.5905029 1.57111212,16.595596 1.54818872,16.6023868 C1.50176885,16.6156854 1.45649515,16.6315305 1.41150798,16.6476586 C1.3920231,16.6544494 1.37253821,16.6609572 1.35333987,16.6685969 C1.3089258,16.6861397 1.26565789,16.7056632 1.22267653,16.7260355 C1.2029051,16.7356558 1.18256059,16.7444272 1.1630757,16.7546134 C1.12410593,16.7744198 1.08599579,16.7962069 1.04845873,16.8185598 C1.0252488,16.8321414 1.00203886,16.84544 0.97968855,16.8598704 C0.947309256,16.8805257 0.916076132,16.9028786 0.884843008,16.9252316 C0.858767647,16.9439063 0.832692286,16.9625809 0.807476553,16.9823873 C0.78111465,17.0033255 0.755612374,17.0253956 0.730396641,17.0474656 C0.702888568,17.0712333 0.675667038,17.0947181 0.649591677,17.1199005 C0.626954825,17.1416876 0.605464144,17.1648894 0.583973462,17.1875254 C0.558184644,17.2146885 0.532395825,17.2415686 0.507753177,17.2701465 C0.485975952,17.2956119 0.46563144,17.322775 0.444713843,17.3493722 C0.423509704,17.3765353 0.402305564,17.4031325 0.382247595,17.4317103 C0.358464573,17.4656642 0.336973892,17.5010329 0.315196667,17.5364015 C0.301156088,17.5593203 0.286255882,17.5816733 0.272788388,17.6051581 C0.24699957,17.6509958 0.224076176,17.6982483 0.201439325,17.7457837 C0.195135391,17.7593653 0.187398746,17.7715321 0.181381355,17.7853966 C0.180235185,17.7879431 0.1796621,17.7907726 0.178515931,17.7930362 C0.155592537,17.8450988 0.135821109,17.8985762 0.117195852,17.9523365 C0.112324631,17.966201 0.10630724,17.9797826 0.101722561,17.9936471 C0.087681982,18.0375042 0.0765068274,18.082776 0.0653316729,18.1277649 C0.0590277395,18.1526644 0.051291094,18.177281 0.045846788,18.2024634 C0.039829397,18.2301925 0.0366774304,18.2584874 0.0318062092,18.2864993 C0.0243561061,18.3295076 0.0163329182,18.3725158 0.0117482394,18.415807 C0.0100289849,18.4327839 0.0100289849,18.4497609 0.00859627274,18.4667378 C0.00401159395,18.521064 0,18.5756732 0,18.6299994 C0,18.6331118 0,18.6359413 0,18.6393367 L0,60.0707113 C0,60.8983371 0.487122122,61.6504156 1.24789226,61.9973111 L38.0989673,78.8039163 C38.0989673,78.8039163 38.1041251,78.805614 38.1064174,78.8070288 C38.1221773,78.8138196 38.1382237,78.8189126 38.1539835,78.8254205 C38.2256191,78.855696 38.2975412,78.8822932 38.3706096,78.9043632 C38.3961118,78.9120029 38.4219007,78.9185107 38.447976,78.9253015 C38.5176058,78.9436931 38.5872356,78.9584065 38.657152,78.9697245 C38.6786427,78.9731198 38.7001334,78.9773641 38.7219106,78.9801936 C38.8141772,78.9920774 38.9067304,79 38.9987106,79 C39.0078799,79 39.0167627,78.9983023 39.0259321,78.9980194 C39.1070236,78.9971705 39.1881151,78.9912286 39.2689201,78.9810424 C39.2987205,78.9773641 39.3279478,78.9717051 39.3571751,78.966895 C39.4199279,78.9564259 39.4823942,78.9434102 39.5442873,78.9272821 C39.5732281,78.9199254 39.6015958,78.9125688 39.6299635,78.9037973 C39.6984472,78.8831421 39.7654981,78.8585255 39.8322625,78.8307965 C39.8508877,78.8231569 39.8697995,78.816932 39.8881382,78.8087265 C39.8924364,78.8067458 39.8970211,78.805614 39.9010327,78.8036334 L76.7521077,61.9970281 C77.5128779,61.6501327 78,60.8980542 78,60.0704283 L78,18.6384879 C78,18.5470953 77.9922634,18.4574005 77.9808017,18.3691204 Z M41.1489249,73.5591735 L41.1489249,45.0642276 C41.1489249,43.8919699 40.187002,42.9421101 38.9998567,42.9421101 C37.8127115,42.9421101 36.8507885,43.8919699 36.8507885,45.0642276 L36.8507885,73.5591735 L4.29784983,58.712839 L4.29784983,21.8890061 L38.1353582,36.5729279 C38.411012,36.6926153 38.7052911,36.7523175 39.0001433,36.7523175 C39.2949954,36.7523175 39.5892745,36.6926153 39.8649283,36.5729279 L73.7018636,21.8890061 L73.7018636,58.712556 L41.1489249,73.5591735 Z" id="Shape"></path>
                </g>
                <text id="360°" font-family="GTAmerica-Bold, GT America" font-size="12" font-weight="bold" fill="#FFFFFF">
                    <tspan x="528.544" y="194">360° </tspan>
                </text>
                <path d="M247,214 L229,214" id="Path-5" stroke="#FFFFFF" stroke-width="3"></path>
                <g id="Group-4-Copy" transform="translate(290.000000, 359.000000) rotate(180.000000) translate(-290.000000, -359.000000) translate(278.000000, 317.000000)">
                    <path d="M12,1.32756454 L12,77.117748" id="Line-4" stroke="#FFFFFF" stroke-linecap="round" stroke-linejoin="round" stroke-dasharray="5,5"></path>
                    <polygon id="Fill-1" stroke="#000000" stroke-width="2" fill="#FFFFFF" transform="translate(11.618000, 74.500000) scale(1, -1) rotate(90.000000) translate(-11.618000, -74.500000) " points="15.807 63 3 73.062 3 75.947 15.533 86 20.236 86 5.759 74.375 20.177 63"></polygon>
                </g>
                <g id="Group-4-Copy-2" transform="translate(381.000000, 359.000000) rotate(180.000000) translate(-381.000000, -359.000000) translate(369.000000, 317.000000)">
                    <polygon id="Fill-1" stroke="#000000" stroke-width="2" fill="#FFFFFF" transform="translate(11.618000, 74.500000) scale(1, -1) rotate(90.000000) translate(-11.618000, -74.500000) " points="15.807 63 3 73.062 3 75.947 15.533 86 20.236 86 5.759 74.375 20.177 63"></polygon>
                    <path d="M12,1.32756454 L12,77.117748" id="Line-4" stroke="#FFFFFF" stroke-linecap="round" stroke-linejoin="round" stroke-dasharray="5,5"></path>
                </g>
                <path d="M577,191.5 L634.673433,155.75" id="Path-6" stroke="#FFFFFF" stroke-width="3"></path>
                <path d="M450.5,194.433068 L513.5,158.933068" id="Path-6-Copy" stroke="#FFFFFF" stroke-width="3" transform="translate(482.000000, 176.716534) scale(1, -1) translate(-482.000000, -176.716534) "></path>
                <path d="M542,243 L542,314" id="Path-10" stroke="#FFFFFF" stroke-width="3"></path>
            </g>
        </g>
    </g>
</svg>