<?xml version="1.0" encoding="UTF-8"?>
<svg width="94px" height="89px" viewBox="0 0 94 89" version="1.1" xmlns="http://www.w3.org/2000/svg" xmlns:xlink="http://www.w3.org/1999/xlink">
    <!-- Generator: Sketch 53.2 (72643) - https://sketchapp.com -->
    <title>Group 4</title>
    <desc>Created with Sketch.</desc>
    <g id="Symbols" stroke="none" stroke-width="1" fill="none" fill-rule="evenodd">
        <g id="centr-odstavec" transform="translate(-158.000000, 0.000000)" fill="#FFFFFF" fill-rule="nonzero">
            <g id="value">
                <g transform="translate(158.000000, 0.000000)">
                    <g id="Group-4">
                        <path d="M83.3162355,44.9006882 L73.1125284,29.1559835 C72.3217379,27.9356724 70.9808561,27.207 69.5258529,27.207 L24.5061145,27.207 C23.0533094,27.207 21.7137099,27.933842 20.9225531,29.1510415 L10.6871557,44.8977596 C9.64119467,46.5066594 9.80275993,48.6309929 11.080078,50.0634446 L43.8074845,86.7771109 C44.6175089,87.6857091 45.7803392,88.207 46.9981236,88.207 C46.9983068,88.207 46.9981236,88.207 46.9983068,88.207 C48.215908,88.207 49.3791046,87.6858922 50.189129,86.7772939 L82.9201991,50.0614312 C84.1956854,48.6306268 84.3585329,46.5084898 83.3162355,44.9006882 Z M67.4588433,30.8675674 L58.8775665,44.1268056 L50.2911606,30.8675674 L67.4588433,30.8675674 Z M55.5108909,45.6665172 L38.4853563,45.6665172 L46.9981236,32.5209454 L55.5108909,45.6665172 Z M43.7050865,30.8679335 L35.1423109,44.0907472 L26.5824662,30.8679335 L43.7050865,30.8679335 L43.7050865,30.8679335 Z M23.1952744,32.3752475 L31.7992656,45.6665172 L14.5559293,45.6665172 L23.1952744,32.3752475 Z M15.329684,49.3272677 L33.7658921,49.3272677 L43.5140292,80.9442541 L15.329684,49.3272677 Z M46.9981236,79.8108858 L37.5993119,49.3272677 L56.3969353,49.3272677 L46.9981236,79.8108858 Z M50.4820348,80.9453524 L60.2305382,49.3274507 L78.6683949,49.3274507 L50.4820348,80.9453524 Z M62.2442421,45.6665172 L70.8403566,32.3843994 L79.4478283,45.6665172 L62.2442421,45.6665172 Z" id="Shape"></path>
                        <path d="M5.26444847,45.207 L1.73555153,45.207 C0.777179977,45.207 0,46.1024 0,47.207 C0,48.3116 0.777179977,49.207 1.73555153,49.207 L5.26444847,49.207 C6.22282002,49.207 7,48.3116 7,47.207 C7,46.1024 6.22282002,45.207 5.26444847,45.207 Z" id="Path"></path>
                        <path d="M92.2644485,45.207 L88.7355515,45.207 C87.77718,45.207 87,46.1024 87,47.207 C87,48.3116 87.77718,49.207 88.7355515,49.207 L92.2644485,49.207 C93.22282,49.207 94,48.3116 94,47.207 C94,46.1024 93.22282,45.207 92.2644485,45.207 Z" id="Path"></path>
                        <path d="M80.4496641,13.7573436 C79.715695,13.0235521 78.5262367,13.0235521 77.7920797,13.7573436 L71.5503359,19.9991754 C70.8165547,20.7329669 70.8165547,21.9228179 71.5503359,22.6566094 C71.9175083,23.0235991 72.3983652,23.207 72.8792221,23.207 C73.3602668,23.207 73.8409358,23.0234112 74.2079203,22.6566094 L80.4496641,16.4147776 C81.1834453,15.6809861 81.1834453,14.4913231 80.4496641,13.7573436 Z" id="Path"></path>
                        <path d="M22.4496538,19.9993633 L16.2079806,13.7573436 C15.4743735,13.0235521 14.2848928,13.0235521 13.5503462,13.7573436 C12.8165513,14.4911352 12.8165513,15.6809861 13.5503462,16.4147776 L19.7922073,22.6566094 C20.1591987,23.0235991 20.6400646,23.207 21.1209305,23.207 C21.6017964,23.207 22.0826623,23.0234112 22.4496538,22.6566094 C23.1834487,21.9230058 23.1834487,20.7329669 22.4496538,19.9993633 Z" id="Path"></path>
                        <path d="M47,0.207 C45.8956,0.207 45,1.04806707 45,2.08563986 L45,14.3283601 C45,15.3659329 45.8954,16.207 47,16.207 C48.1044,16.207 49,15.3659329 49,14.3283601 L49,2.08563986 C49,1.04825493 48.1044,0.207 47,0.207 Z" id="Path"></path>
                        <path d="M48.4138,18.793 C48.042,18.421 47.526,18.207 47,18.207 C46.474,18.207 45.958,18.421 45.586,18.793 C45.214,19.165 45,19.681 45,20.207 C45,20.735 45.2138,21.249 45.586,21.621 C45.958,21.995 46.474,22.207 47,22.207 C47.526,22.207 48.042,21.995 48.4138,21.621 C48.7878,21.249 49,20.733 49,20.207 C49,19.681 48.7878,19.1652 48.4138,18.793 Z" id="Path"></path>
                    </g>
                </g>
            </g>
        </g>
    </g>
</svg>