<?xml version="1.0" encoding="UTF-8"?>
<svg width="477px" height="477px" viewBox="0 0 477 477" version="1.1" xmlns="http://www.w3.org/2000/svg" xmlns:xlink="http://www.w3.org/1999/xlink">
    <!-- Generator: Sketch 55.2 (78181) - https://sketchapp.com -->
    <title>Group 9</title>
    <desc>Created with Sketch.</desc>
    <defs>
        <polygon id="path-1" points="0 0.999 445.002122 0.999 445.002122 293.999 0 293.999"></polygon>
        <polygon id="path-3" points="0.997752647 0 454.005 0 454.005 309 0.997752647 309"></polygon>
    </defs>
    <g id="current" stroke="none" stroke-width="1" fill="none" fill-rule="evenodd">
        <g id="root-causes" transform="translate(-658.000000, -296.000000)">
            <g id="Group-9" transform="translate(658.000000, 295.000000)">
                <g id="Group-3" transform="translate(0.000000, 0.001000)">
                    <mask id="mask-2" fill="white">
                        <use xlink:href="#path-1"></use>
                    </mask>
                    <g id="Clip-2"></g>
                    <path d="M428.6416,94 L414.4996,126.999 L400.3586,94 L428.6416,94 Z M12.9996,281 L111.9996,281 L111.9996,182 L12.9996,182 L12.9996,281 Z M408.5276,146.06 C409.2106,147.655 410.4746,148.889 412.0856,149.534 C413.6986,150.179 415.4636,150.157 417.0596,149.473 C418.6006,148.813 419.8126,147.601 420.4716,146.061 L444.4716,90.06 C445.1566,88.464 445.1786,86.698 444.5356,85.086 C443.8906,83.475 442.6576,82.21 441.0616,81.525 L441.0626,81.525 C440.2466,81.176 439.3856,80.999 438.4996,80.999 L420.7266,80.999 L420.6016,79.637 C418.6166,58.111 408.7326,38.229 392.7706,23.651 C376.8096,9.074 356.1146,1.029 334.4976,0.999 L142.4996,0.999 C94.8586,1.053 56.0546,39.857 55.9995997,87.501 L55.9995997,168.999 L6.49959974,168.999 L6.4986,168.999 C4.7626,168.999 3.1316,169.674 1.9046,170.901 C0.6766,172.128 -0.000400257213,173.76 -0.000400257213,175.496 L-0.000400257213,287.499 C-0.000400257213,291.082 2.9136,293.999 6.4966,293.999 L118.4996,293.999 L118.5016,293.999 C120.2366,293.999 121.8686,293.323 123.0956,292.097 C124.3236,290.87 124.9996,289.238 124.9996,287.503 L124.9996,175.499 C125.0006,173.763 124.3246,172.131 123.0976,170.903 C121.8706,169.676 120.2396,169 118.5036,168.999 L68.9995997,168.999 L68.9995997,87.499 C69.0456,47.016 102.0166,14.045 142.4986,13.999 L334.4996,13.999 C371.9306,14.051 403.3216,42.138 407.5186,79.331 L407.7066,80.999 L390.4996,80.999 C386.9166,80.999 384.0006,83.914 383.9996,87.498 C383.9996,88.384 384.1766,89.246 384.5266,90.059 L408.5276,146.06 Z" id="Fill-1" fill="#FFFFFF" mask="url(#mask-2)"></path>
                </g>
                <g id="Group-6" transform="translate(23.000000, 169.001000)">
                    <mask id="mask-4" fill="white">
                        <use xlink:href="#path-3"></use>
                    </mask>
                    <g id="Clip-5"></g>
                    <path d="M31.5,166.999 L45.642,199.999 L17.358,199.999 L31.5,166.999 Z M342,62.5 C342,35.206 364.206,13 391.5,13 C418.794,13 441,35.206 441,62.5 C440.97,89.765 418.765,111.97 391.502,112 L391.5,112 C364.206,112 342,89.794 342,62.5 L342,62.5 Z M25.528,147.938 L1.528,203.938 C0.843,205.534 0.821,207.301 1.466,208.913 C2.11,210.525 3.343,211.789 4.938,212.473 C5.752,212.823 6.614,213 7.5,213 L25.292,213 L25.4,214.384 C27.407,240.182 38.964,264.075 57.944,281.664 C76.923,299.252 101.626,308.96 127.502,309 L295.5,309 C351.953,308.936 397.936,262.953 398,206.498 L398,124.621 L399.313,124.456 C433.491,120.163 457.806,88.864 453.514,54.687 C449.598,23.507 422.951,0 391.53,0 C391.508,0 391.489,0 391.472,0 C374.794,0 359.115,6.49 347.317,18.277 C335.513,30.071 329.008,45.756 329,62.442 C328.985,93.878 352.496,120.538 383.687,124.456 L385,124.621 L385,206.5 C384.944,255.796 344.796,295.944 295.502,296 L127.5,296 C105.132,295.969 83.72,287.645 67.206,272.562 C50.691,257.48 40.465,236.908 38.411,214.638 L38.26,213 L55.5,213 C59.083,213 61.999,210.085 62,206.502 C62,205.615 61.823,204.753 61.474,203.939 L37.473,147.938 C36.418,145.478 34.014,144 31.491,144 C30.638,144 29.772,144.169 28.941,144.525 C27.4,145.186 26.188,146.398 25.528,147.938 L25.528,147.938 Z" id="Fill-4" fill="#FFFFFF" mask="url(#mask-4)"></path>
                </g>
            </g>
        </g>
    </g>
</svg>