<?xml version="1.0" encoding="UTF-8"?>
<svg width="467px" height="467px" viewBox="0 0 467 467" version="1.1" xmlns="http://www.w3.org/2000/svg" xmlns:xlink="http://www.w3.org/1999/xlink">
    <!-- Generator: Sketch 55.2 (78181) - https://sketchapp.com -->
    <title>Group 7</title>
    <desc>Created with Sketch.</desc>
    <g id="current" stroke="none" stroke-width="1" fill="none" fill-rule="evenodd">
        <g id="root-causes" transform="translate(-973.000000, -300.000000)" fill="#312F39">
            <g id="Group-5" transform="translate(565.000000, 0.000000)">
                <g id="Combined-Shape">
                    <g id="Group-7" transform="translate(408.000000, 300.000000)">
                        <path d="M409.5,133.6934 L387.775,83.0014 L431.225,83.0014 L409.5,133.6934 Z M3,280.0014 L112,280.0014 L112,171.0014 L3,171.0014 L3,280.0014 Z M410.875,138.0944 L434.876,82.0914 C435.039,81.7104 435.044,81.3244 434.892,80.9414 C434.739,80.5614 434.47,80.2844 434.09,80.1214 C433.9,80.0404 433.707,80.0004 433.5,80.0004 L411.164,80.0004 L410.622,74.0944 C408.752,53.8144 399.438,35.0804 384.398,21.3444 C369.359,7.6084 349.859,0.0274 329.491,0.0004 L137.5,0.0004 C92.615,0.0504 56.052,36.6144 56,81.5074 L56,168.0004 L1.5,168.0004 C1.087,168.0004 0.73,168.1474 0.439,168.4384 C0.148,168.7294 0,169.0864 0,169.4994 L0,281.5004 C0,282.0374 0.276,282.3934 0.44,282.5584 C0.605,282.7234 0.962,283.0004 1.498,283.0004 L113.5,283.0004 C113.913,283.0004 114.27,282.8524 114.562,282.5604 C114.853,282.2694 115,281.9144 115,281.5044 L115,169.5004 C115,169.0864 114.853,168.7304 114.563,168.4404 C114.271,168.1474 113.914,168.0004 113.503,168.0004 L59,168.0004 L59,81.5004 C59.049,38.2614 94.261,3.0484 137.493,3.0004 L329.5,3.0004 C369.48,3.0554 403.005,33.0504 407.487,72.7714 L408.304,80.0004 L385.5,80.0004 C384.673,80.0004 384,80.6724 384,81.5004 C384,81.7054 384.039,81.8974 384.119,82.0834 L408.123,138.0914 C408.285,138.4704 408.562,138.7394 408.942,138.8924 C409.328,139.0464 409.71,139.0414 410.09,138.8784 C410.45,138.7244 410.722,138.4534 410.875,138.0944 L410.875,138.0944 Z" id="Fill-1"></path>
                        <path d="M409.5078,280.001 C379.4488,280.001 354.9998,255.553 354.9998,225.501 C354.9998,195.45 379.4478,171.001 409.4998,171.001 C439.5518,171.001 463.9998,195.45 463.9998,225.501 C463.9668,255.522 439.5218,279.968 409.5078,280.001 L409.5078,280.001 Z M27.7768,368 L49.4998,317.307 L71.2258,368 L27.7768,368 Z M466.5528,218.311 C462.9498,189.629 438.4368,168.001 409.5298,168.001 L409.4648,168.001 C394.0858,168.019 379.6878,173.989 368.8518,184.815 C357.9918,195.665 352.0068,210.095 351.9998,225.446 C351.9868,254.365 373.6148,278.892 402.3098,282.496 L407.9998,283.211 L407.9998,369.501 C407.9418,421.552 365.5518,463.942 313.5078,464.001 L145.4998,464.001 C121.8788,463.968 99.2718,455.18 81.8338,439.256 C64.3988,423.332 53.6018,401.613 51.4328,378.098 L50.7798,371.001 L73.4998,371.001 C74.3268,371.001 74.9998,370.328 74.9998,369.502 C74.9998,369.295 74.9608,369.103 74.8798,368.915 L50.8778,312.909 C50.5908,312.238 49.9508,312.001 49.4908,312.001 C49.2938,312.001 49.0988,312.042 48.9118,312.121 C48.5508,312.276 48.2788,312.549 48.1238,312.909 L24.1238,368.909 C23.9608,369.29 23.9558,369.676 24.1088,370.058 C24.2618,370.44 24.5298,370.716 24.9068,370.878 C25.1028,370.962 25.2938,371.001 25.4998,371.001 L47.9198,371.001 L48.3858,376.998 C50.2938,401.538 61.2888,424.268 79.3428,440.998 C97.3978,457.729 120.8958,466.963 145.5108,467.001 L313.4998,467.001 C367.1978,466.939 410.9388,423.198 410.9998,369.493 L410.9998,283.211 L416.6908,282.496 C448.1328,278.547 470.5008,249.753 466.5528,218.311 L466.5528,218.311 Z" id="Fill-3"></path>
                    </g>
                </g>
            </g>
        </g>
    </g>
</svg>