<?xml version="1.0" encoding="UTF-8"?>
<svg width="465px" height="465px" viewBox="0 0 465 465" version="1.1" xmlns="http://www.w3.org/2000/svg" xmlns:xlink="http://www.w3.org/1999/xlink">
    <!-- Generator: Sketch 55.2 (78181) - https://sketchapp.com -->
    <title>Group 3</title>
    <desc>Created with Sketch.</desc>
    <defs>
        <polygon id="path-1" points="0 0 465 0 465 465 0 465"></polygon>
    </defs>
    <g id="current" stroke="none" stroke-width="1" fill="none" fill-rule="evenodd">
        <g id="tolerant" transform="translate(-1187.000000, -306.000000)">
            <g id="Group-5" transform="translate(565.000000, 0.000000)">
                <g id="Combined-Shape">
                    <g id="Group-3" transform="translate(622.000000, 306.000000)">
                        <mask id="mask-2" fill="white">
                            <use xlink:href="#path-1"></use>
                        </mask>
                        <g id="Clip-2"></g>
                        <path d="M155.635309,153.725556 L80.6880247,153.725556 L80.6880247,3.82716049 L155.635309,3.82716049 C196.962901,3.82716049 230.58642,37.450679 230.58642,78.7782716 C230.58642,120.103951 196.962901,153.725556 155.635309,153.725556 M97.9887037,465 L463.08642,465 C464.140802,465 465,464.141759 465,463.08642 C465,462.03108 464.140802,461.17284 463.08642,461.17284 L97.9887037,461.17284 C46.0675309,461.17284 3.82716049,418.932469 3.82716049,367.011296 C3.82716049,315.08821 46.0675309,272.845926 97.9887037,272.845926 L367.007469,272.845926 C421.041235,272.845926 465,228.88716 465,174.853395 C465,120.8225 421.041235,76.8646914 367.007469,76.8646914 L235.098642,76.8646914 L233.434784,66.376358 C230.53284,48.0854012 221.144815,31.2966049 206.998673,19.1004012 C192.711883,6.78364198 174.471636,0 155.635309,0 L78.7744444,0 C77.7191049,0 76.8608642,0.858240741 76.8608642,1.91358025 L76.8608642,38.4323457 L1.91358025,38.4323457 C0.858240741,38.4323457 0,39.2905864 0,40.3459259 C0,41.4012654 0.858240741,42.2595062 1.91358025,42.2595062 L76.8608642,42.2595062 L76.8608642,115.29321 L1.91358025,115.29321 C0.858240741,115.29321 0,116.151451 0,117.20679 C0,118.26213 0.858240741,119.12037 1.91358025,119.12037 L76.8608642,119.12037 L76.8608642,155.639136 C76.8608642,156.694475 77.7191049,157.552716 78.7744444,157.552716 L155.635309,157.552716 C174.470679,157.552716 192.711883,150.770031 206.998673,138.452315 C221.144815,126.257068 230.53284,109.469228 233.434784,91.1801852 L235.098642,80.6918519 L367.007469,80.6918519 C418.930556,80.6918519 461.17284,122.932222 461.17284,174.853395 C461.17284,226.776481 418.930556,269.018765 367.007469,269.018765 L97.9887037,269.018765 C43.9568519,269.018765 0,312.977531 0,367.011296 C0,421.043148 43.9568519,465 97.9887037,465" id="Fill-1" fill="#312F39" mask="url(#mask-2)"></path>
                    </g>
                </g>
            </g>
        </g>
    </g>
</svg>