<?xml version="1.0" encoding="UTF-8"?>
<svg width="486px" height="486px" viewBox="0 0 486 486" version="1.1" xmlns="http://www.w3.org/2000/svg" xmlns:xlink="http://www.w3.org/1999/xlink">
    <!-- Generator: Sketch 55.2 (78181) - https://sketchapp.com -->
    <title>Group 3</title>
    <desc>Created with Sketch.</desc>
    <defs>
        <polygon id="path-1" points="0 0 486 0 486 486 0 486"></polygon>
    </defs>
    <g id="current" stroke="none" stroke-width="1" fill="none" fill-rule="evenodd">
        <g id="tolerant" transform="translate(-672.000000, -292.000000)">
            <g id="Group-3" transform="translate(672.000000, 292.000000)">
                <mask id="mask-2" fill="white">
                    <use xlink:href="#path-1"></use>
                </mask>
                <g id="Clip-2"></g>
                <path d="M164.283677,157.428726 L92.4301452,157.428726 L92.4301452,13.7177419 L164.283677,13.7177419 C203.906395,13.7177419 236.141129,45.9524758 236.141129,85.5751935 C236.141129,125.195952 203.906395,157.428726 164.283677,157.428726 M105.248395,486 L479.141129,486 C482.922327,486 486,482.922327 486,479.141129 C486,475.359931 482.922327,472.282258 479.141129,472.282258 L105.248395,472.282258 C54.7778831,472.282258 13.7177419,431.222117 13.7177419,380.751605 C13.7177419,330.279133 54.7778831,289.217032 105.248395,289.217032 L380.747685,289.217032 C438.783532,289.217032 486,242.000565 486,183.964718 C486,125.930831 438.783532,78.7163226 380.747685,78.7163226 L249.844173,78.7163226 L248.795746,72.1063306 C245.642625,52.2332419 235.445444,33.9935444 220.083532,20.7490645 C204.563867,7.36936694 184.746629,0 164.283677,0 L85.5712742,0 C81.7890968,0 78.7124032,3.07669355 78.7124032,6.85887097 L78.7124032,39.3581613 L6.85887097,39.3581613 C3.07669355,39.3581613 0,42.4348548 0,46.2170323 C0,49.9992097 3.07669355,53.0759032 6.85887097,53.0759032 L78.7124032,53.0759032 L78.7124032,118.070565 L6.85887097,118.070565 C3.07669355,118.070565 0,121.147258 0,124.929435 C0,128.711613 3.07669355,131.788306 6.85887097,131.788306 L78.7124032,131.788306 L78.7124032,164.287597 C78.7124032,168.069774 81.7890968,171.146468 85.5712742,171.146468 L164.283677,171.146468 C184.746629,171.146468 204.562887,163.777101 220.083532,150.397403 C235.445444,137.152923 245.642625,118.915185 248.795746,99.0440565 L249.844173,92.4340645 L380.747685,92.4340645 C431.220157,92.4340645 472.282258,133.494206 472.282258,183.964718 C472.282258,234.43719 431.220157,275.49929 380.747685,275.49929 L105.248395,275.49929 C47.2135282,275.49929 0,322.714778 0,380.751605 C0,438.785492 47.2135282,486 105.248395,486" id="Fill-1" fill="#FFFFFF" mask="url(#mask-2)"></path>
            </g>
        </g>
    </g>
</svg>