<?xml version="1.0" encoding="utf-8"?>
<!-- Generator: Adobe Illustrator 23.0.4, SVG Export Plug-In . SVG Version: 6.00 Build 0)  -->
<svg version="1.1" id="Layer_1" xmlns="http://www.w3.org/2000/svg" xmlns:xlink="http://www.w3.org/1999/xlink" x="0px" y="0px"
	 viewBox="0 0 412 367" style="enable-background:new 0 0 412 367;" xml:space="preserve">
<style type="text/css">
	.st0{fill:#19191E;}
</style>
<path class="st0" d="M406,32.2C406,17.7,394.3,6,379.9,6H32.1C17.7,6,6,17.7,6,32.2v221.6c0,14.4,11.7,26.2,26.1,26.2h257.8
	L397.8,360c1.5,1.1,3.7,1.3,5.3,0.5c1.7-0.9,2.8-2.6,2.8-4.6V32.2z M395.8,345.7l-101.1-75c-0.9-0.6-2-1-3-1H32.1
	c-8.7,0-15.9-7.1-15.9-15.9V32.2c0-8.8,7.1-15.9,15.9-15.9h347.8c8.7,0,15.9,7.1,15.9,15.9V345.7z"/>
<path class="st0" d="M205.5,59C160,59,123,96.2,123,142c0,45.8,37,83,82.5,83c45.5,0,82.5-37.2,82.5-83C288,96.2,251,59,205.5,59z
	 M205.5,214.7c-39.9,0-72.3-32.6-72.3-72.7s32.4-72.7,72.3-72.7c39.9,0,72.3,32.6,72.3,72.7S245.4,214.7,205.5,214.7z"/>
<path class="st0" d="M235.8,137.7h-24.4V95.1c0-2.8-2.3-5.1-5.2-5.1c-2.9,0-5.2,2.3-5.2,5.1v47.7c0,2.8,2.3,5.1,5.2,5.1h29.6
	c2.9,0,5.2-2.3,5.2-5.1S238.7,137.7,235.8,137.7z"/>
</svg>
