<?xml version="1.0" encoding="utf-8"?>
<!-- Generator: Adobe Illustrator 23.0.4, SVG Export Plug-In . SVG Version: 6.00 Build 0)  -->
<svg version="1.1" id="Layer_1" xmlns="http://www.w3.org/2000/svg" xmlns:xlink="http://www.w3.org/1999/xlink" x="0px" y="0px"
	 viewBox="0 0 81 63" style="enable-background:new 0 0 81 63;" xml:space="preserve">
<style type="text/css">
	.st0{fill:#FFFFFF;}
</style>
<title>stack-of-square-papers 2</title>
<desc>Created with Sketch.</desc>
<path class="st0" d="M78.5,19c0.6-0.3,1-0.9,1-1.5c0-0.7-0.4-1.2-1-1.5L41.1,1.8c-0.2-0.1-0.4-0.1-0.6-0.1c-0.2,0-0.4,0-0.6,0.1
	L2.5,16c-0.6,0.2-1,0.8-1,1.5c0,0.7,0.4,1.3,1,1.5h0l37.4,16.1c0.4,0.2,0.8,0.2,1.3,0L78.5,19z M7.4,17.6L40.5,5l33.1,12.6
	L40.5,31.8L7.4,17.6z"/>
<path class="st0" d="M78.5,25.2c-0.4-0.2-0.8-0.2-1.2,0L40.5,41L3.7,25.2C3.5,25.1,3.3,25,3.1,25c-0.2,0-0.4,0-0.6,0.1
	c-0.4,0.2-0.7,0.5-0.9,0.9c-0.3,0.8,0,1.8,0.8,2.1l38,16.3l38-16.3c0.8-0.3,1.2-1.3,0.8-2.1C79.2,25.6,78.9,25.3,78.5,25.2z"/>
<path class="st0" d="M78.5,33.6c-0.4-0.2-0.8-0.2-1.2,0L40.5,49.4L3.7,33.6c-0.2-0.1-0.4-0.1-0.6-0.1c-0.2,0-0.4,0-0.6,0.1
	c-0.4,0.2-0.7,0.5-0.9,0.9c-0.3,0.8,0,1.8,0.8,2.1l38,16.3l38-16.3c0.8-0.3,1.2-1.3,0.8-2.1C79.2,34.1,78.9,33.8,78.5,33.6z"/>
<path class="st0" d="M78.5,42.1c-0.4-0.2-0.8-0.2-1.2,0L40.5,57.8L3.7,42.1c-0.2-0.1-0.4-0.1-0.6-0.1c-0.2,0-0.4,0-0.6,0.1
	c-0.4,0.2-0.7,0.5-0.9,0.9c-0.3,0.8,0,1.8,0.8,2.1l38,16.3l38-16.3c0.8-0.3,1.2-1.3,0.8-2.1C79.2,42.5,78.9,42.2,78.5,42.1z"/>
</svg>
