<?xml version="1.0" encoding="utf-8"?>
<!-- Generator: Adobe Illustrator 23.0.4, SVG Export Plug-In . SVG Version: 6.00 Build 0)  -->
<svg version="1.1" id="Layer_1" xmlns="http://www.w3.org/2000/svg" xmlns:xlink="http://www.w3.org/1999/xlink" x="0px" y="0px"
	 viewBox="0 0 300 368" style="enable-background:new 0 0 300 368;" xml:space="preserve">
<path d="M279.4,4.3H64.6c-8.9,0-16.2,7.3-16.2,16.3V49H20.6c-8.9,0-16.2,7.3-16.2,16.3v281.6c0,9,7.3,16.3,16.2,16.3H235
	c8.9,0,16.2-7.3,16.2-16.3v-28h28.2c8.9,0,16.2-7.3,16.2-16.3v-282C295.3,11.5,288.2,4.3,279.4,4.3z M243.8,346.6
	c0,4.8-3.7,8.5-8.5,8.5H20.6c-4.7,0-8.5-3.7-8.5-8.5V64.9c0-4.8,3.7-8.5,8.5-8.5h27.8v246.2c0,9,7.3,16.3,16.2,16.3h178.8v25.6h0.4
	V346.6z M287.9,302.3c0,4.9-4,8.9-8.8,8.9H64.6c-4.9,0-8.8-4-8.8-8.9V20.6c0-4.9,4-8.9,8.8-8.9H279c4.9,0,8.8,4,8.8,8.9V302.3z"/>
<path d="M234.1,73.1c-0.1-0.1-0.3-0.2-0.6-0.1l-0.1,0l-22,3.1c-0.3,0.1-0.5,0.3-0.5,0.5c0,0.1-0.1,0.4,0.2,0.7l7.1,7.1l-30.1,30.3
	L171.4,98c-0.7-0.7-1.6-1.1-2.6-1.1c-0.9,0-1.8,0.4-2.6,1.1L132,131.6c-1.5,1.5-1.5,3.7,0,5.2c1.4,1.5,3.7,1.5,5.1,0h0l31-31.2
	l16.6,16.7c1.4,1.5,3.7,1.5,5.1,0l32.9-33.1l7.1,7.2c0.2,0.2,0.7,0.2,0.9,0.1c0.2-0.1,0.2-0.2,0.2-0.3l0-0.3l3.1-22.3
	C234.2,73.4,234.2,73.2,234.1,73.1z"/>
<path d="M108.3,207.4c-1.9,0-3.7,1.8-3.7,3.7s1.8,3.7,3.7,3.7h127.9c1.9,0,3.6-1.7,3.7-3.6c-0.3-2.4-1.8-3.8-4.1-3.8H108.3z"/>
<path d="M108.3,259.3c-1.9,0-3.7,1.8-3.7,3.7s1.8,3.7,3.7,3.7h127.9c1.9,0,3.6-1.7,3.7-3.6c-0.3-2.4-1.8-3.8-4.1-3.8H108.3z"/>
<path d="M104.6,63.8v95.4c0,1.9,1.8,3.7,3.7,3.7h127.9c1.9,0,3.6-1.7,3.7-3.6c-0.3-2.4-1.8-3.8-4.1-3.8H111.9V63.8
	c0-1.9-1.8-3.7-3.7-3.7S104.6,61.8,104.6,63.8z"/>
</svg>
